<?xml version="1.0" standalone="no"?>
<!DOCTYPE svg PUBLIC "-//W3C//DTD SVG 20010904//EN"
 "http://www.w3.org/TR/2001/REC-SVG-20010904/DTD/svg10.dtd">
<svg version="1.0" xmlns="http://www.w3.org/2000/svg"
 width="1243.000000pt" height="1243.000000pt" viewBox="0 0 1243.000000 1243.000000"
 preserveAspectRatio="xMidYMid meet">
<metadata>
Created by potrace 1.14, written by Peter Selinger 2001-2017
</metadata>
<g transform="translate(0.000000,1243.000000) scale(0.100000,-0.100000)"
fill="#000000" stroke="none">
<path d="M5609 11257 c-2 -3 -56 -7 -119 -11 -63 -4 -128 -8 -145 -10 -16 -2
-57 -7 -90 -10 -33 -4 -78 -9 -100 -13 -22 -3 -51 -7 -65 -9 -293 -34 -792
-169 -1140 -307 -420 -167 -889 -434 -1216 -692 -28 -22 -68 -53 -90 -70 -147
-114 -421 -373 -584 -550 -69 -75 -178 -206 -259 -310 -34 -44 -70 -91 -81
-105 -11 -14 -20 -28 -20 -32 0 -5 -14 -8 -30 -8 -17 0 -45 -6 -63 -14 -37
-15 -97 -79 -98 -104 -1 -20 -8 -65 -12 -68 -1 -1 -166 -4 -367 -6 -334 -4
-370 -6 -430 -25 -307 -98 -506 -317 -568 -626 -9 -46 -9 -244 1 -277 2 -8 7
-33 12 -55 13 -64 61 -171 109 -243 129 -194 341 -324 566 -349 30 -3 56 -7
58 -8 2 -2 -4 -39 -12 -82 -9 -43 -18 -89 -21 -103 -3 -14 -7 -36 -10 -50 -2
-14 -7 -38 -10 -55 -3 -16 -7 -39 -9 -51 -2 -12 -7 -45 -11 -74 -4 -29 -8 -60
-10 -69 -1 -9 -6 -45 -9 -81 -4 -36 -9 -78 -11 -95 -27 -211 -26 -859 1 -999
2 -10 6 -50 9 -88 4 -38 8 -79 11 -91 2 -12 7 -44 10 -72 5 -39 49 -277 69
-366 31 -142 143 -523 175 -594 5 -11 23 -58 40 -105 144 -386 393 -835 659
-1189 47 -63 95 -126 106 -141 28 -37 180 -213 240 -278 98 -107 298 -299 406
-392 116 -100 121 -103 241 -195 62 -47 118 -89 124 -94 52 -43 344 -229 444
-284 30 -16 60 -33 65 -37 21 -16 313 -160 405 -200 436 -191 906 -326 1340
-384 63 -9 133 -19 155 -23 22 -3 263 -8 535 -9 388 -3 520 -1 610 11 63 8
135 17 160 20 352 43 934 205 1247 346 24 10 45 19 47 19 7 0 159 71 273 127
393 195 792 468 1137 778 85 76 307 300 377 380 24 28 47 52 50 55 42 38 287
356 376 490 55 83 173 269 173 274 0 2 23 43 51 92 196 339 379 797 482 1209
56 221 102 472 122 660 4 33 8 74 10 90 14 122 20 277 20 505 -1 270 -8 398
-30 565 -2 17 -7 55 -10 85 -7 71 -42 279 -59 352 l-13 56 126 60 c69 34 194
93 276 132 83 40 186 89 230 110 44 21 132 62 195 93 63 30 153 73 200 95 47
22 162 77 255 122 94 45 192 90 218 101 99 40 97 36 97 169 l0 118 -32 20
c-18 11 -44 23 -58 27 -23 7 -127 56 -385 180 -100 48 -272 130 -380 180 -38
18 -124 59 -190 90 -66 32 -160 76 -210 100 -49 23 -139 66 -200 95 -217 103
-301 143 -380 180 -44 21 -132 62 -195 92 -298 143 -304 145 -364 134 -19 -4
-58 -22 -86 -42 -52 -36 -64 -36 -89 0 -14 18 -82 100 -175 210 -46 55 -339
351 -401 406 -117 103 -244 207 -360 294 -71 54 -137 104 -146 111 -9 7 -20
14 -25 16 -5 2 -56 35 -114 73 -241 159 -555 324 -815 430 -77 32 -149 61
-160 66 -29 13 -184 66 -230 80 -22 6 -47 14 -55 17 -8 3 -19 7 -25 8 -5 2
-35 10 -65 20 -147 45 -501 124 -625 140 -22 2 -51 7 -65 10 -14 3 -52 7 -85
11 -33 3 -65 7 -72 9 -6 2 -49 7 -95 10 -46 4 -94 9 -108 11 -31 7 -624 16
-631 11z"/>
</g>
</svg>
