<?xml version="1.0" encoding="iso-8859-1"?>
<!-- Generator: Adobe Illustrator 19.2.0, SVG Export Plug-In . SVG Version: 6.00 Build 0)  -->
<svg version="1.1" id="Layer_1" xmlns="http://www.w3.org/2000/svg" xmlns:xlink="http://www.w3.org/1999/xlink" x="0px" y="0px"
	 viewBox="0 0 600 600" enable-background="new 0 0 600 600" xml:space="preserve">
<g>
	<g>
		<g enable-background="new    ">
			<g>
				
					<linearGradient id="SVGID_1_" gradientUnits="userSpaceOnUse" x1="299.9482422" y1="110.6885376" x2="214.5381775" y2="-152.6591949" gradientTransform="matrix(0.9782101 0.2076175 -0.2076175 0.9782101 54.1946678 83.6251144)">
					<stop  offset="0" style="stop-color:#CD0406"/>
					<stop  offset="1" style="stop-color:#6B0400"/>
				</linearGradient>
				<path fill="url(#SVGID_1_)" d="M420.0189819,282.5481567L372.57901,329.4109192
					c23.9022827-23.6049194,35.0707397-58.4006958,27.099884-95.8034363
					c-3.3688354-15.8361511-9.8549194-30.6968842-18.727356-44.0269165
					c-25.0319214-37.6892548-69.0557556-63.1968536-115.414856-63.9902725
					c-3.8168335-0.0704193-7.6706238,0.033226-11.5124817,0.3091888c-2.156189,0.1608047-4.2733612,0.3662338-6.3796234,0.6346588
					c-25.6024323,3.1633682-47.4303741,13.9670029-63.4947662,29.8377304l47.4398041-46.8628082
					c16.8598938-16.6477661,40.0682831-27.7282867,67.3338776-30.2719269
					c0.8382874-0.0645447,1.6906128-0.1383133,2.5405273-0.20047c3.8418579-0.2759628,7.684021-0.3820038,11.5125427-0.3091736
					c49.1502075,0.840126,95.6755371,29.4736328,119.7372437,70.9343109
					c6.670105,11.4802399,11.6139221,23.9521942,14.4048157,37.08284
					C455.075531,224.1565704,443.9094238,258.9407043,420.0189819,282.5481567z"/>
			</g>
			
				<linearGradient id="SVGID_2_" gradientUnits="userSpaceOnUse" x1="337.5804749" y1="169.128418" x2="266.4098816" y2="-98.947525" gradientTransform="matrix(0.9782101 0.2076175 -0.2076175 0.9782101 54.1946678 83.6251144)">
				<stop  offset="0" style="stop-color:#CD0406"/>
				<stop  offset="1" style="stop-color:#6B0400"/>
			</linearGradient>
			<path fill="url(#SVGID_2_)" d="M432.7138062,149.6618042c-14.3474121,10.1236877-32.9507446,22.3028259-51.7622681,39.9187622
				c-25.0319214-37.6892548-69.0557556-63.1968536-115.414856-63.9902725
				c-3.8168335-0.0704193-7.6706238,0.033226-11.5124817,0.3091888c-2.156189,0.1608047-4.2733612,0.3662338-6.3796234,0.6346588
				c12.9124603-13.5325623,31.6704865-30.9536514,51.2789154-47.2970047c0.8382874-0.0645447,1.6906128-0.1383133,2.5405273-0.20047
				c3.8418579-0.2759628,7.684021-0.3820038,11.5125427-0.3091736
				C362.12677,79.5676193,408.6520996,108.2011261,432.7138062,149.6618042z"/>
			<g>
				
					<linearGradient id="SVGID_3_" gradientUnits="userSpaceOnUse" x1="303.4034119" y1="-4.7325711" x2="194.2751465" y2="279.9498596" gradientTransform="matrix(0.9782101 0.2076175 -0.2076175 0.9782101 54.1946678 83.6251144)">
					<stop  offset="0" style="stop-color:#CD0406"/>
					<stop  offset="1" style="stop-color:#6B0400"/>
				</linearGradient>
				<path fill="url(#SVGID_3_)" d="M391.2662048,255.8192596l-47.4282837,46.8652802
					c-11.7662964,11.6173401-28.0090332,19.3016052-47.1119385,20.9221191
					c-2.9993591,0.2485962-5.9899292,0.3414001-8.9741211,0.2901306c-4.1308594-0.0764771-8.2398987-0.4271851-12.2990112-1.0704346
					c-29.3024139-4.4851074-56.0215149-22.9125977-70.5444946-48.3553162
					c-4.367691-7.6448059-7.6322937-15.9164124-9.530777-24.6257172
					c-5.6735687-26.0018311,2.0146484-50.1135254,18.5544891-66.4533081l47.4398193-46.8628235
					c-16.539856,16.339798-24.2305298,40.4631042-18.5544281,66.4533386
					c1.7880859,8.2007904,4.7858582,16.0156097,8.7741852,23.2767944
					c14.2057495,25.9089355,40.9845886,44.7977753,70.4740601,49.6015472
					c4.3259583,0.6998901,8.7018738,1.1071472,13.1235046,1.1846924c2.9842529,0.0513611,5.9772949-0.0531006,8.9766541-0.3016968
					C363.2662354,275.1349487,379.5114136,267.4390869,391.2662048,255.8192596z"/>
			</g>
			
				<linearGradient id="SVGID_4_" gradientUnits="userSpaceOnUse" x1="269.8265686" y1="41.1321602" x2="235.8228302" y2="179.124054" gradientTransform="matrix(0.9782101 0.2076175 -0.2076175 0.9782101 54.1946678 83.6251144)">
				<stop  offset="0" style="stop-color:#CD0406"/>
				<stop  offset="1" style="stop-color:#6B0400"/>
			</linearGradient>
			<path fill="url(#SVGID_4_)" d="M322.0657043,275.8608704c-14.1233826,15.809845-30.6488037,32.3103333-46.612854,46.9654846
				c-29.3024139-4.4851074-56.0215149-22.9125977-70.5444946-48.3553162
				c14.4787292-14.9704895,31.5978699-32.4969635,46.6832886-48.2117157
				C265.7973938,252.1682587,292.5762329,271.0570984,322.0657043,275.8608704z"/>
			<g>
				
					<linearGradient id="SVGID_5_" gradientUnits="userSpaceOnUse" x1="263.2460632" y1="-22.2599277" x2="172.4862061" y2="419.8283386" gradientTransform="matrix(0.9782101 0.2076175 -0.2076175 0.9782101 54.1946678 83.6251144)">
					<stop  offset="0" style="stop-color:#CD0406"/>
					<stop  offset="1" style="stop-color:#6B0400"/>
				</linearGradient>
				<path fill="url(#SVGID_5_)" d="M343.260437,553.1334839l-47.4282532,46.8651733
					c-70.2548981-62.9177856-120.4212494-130.95755-154.9886017-189.7084351
					c-35.0692978-59.5849609-54.0867157-109.6151428-61.7118912-135.0489197
					c-1.1240845-3.7308655-1.9409103-6.6811218-2.5717926-9.0219727c-0.72892-2.9072571-1.1900635-4.8482971-1.6139069-6.7934875
					c-1.8446732-8.3341064-3.1250458-16.5847015-3.8600082-24.7196198
					c-2.3216476-25.5692902,0.7107468-50.0265045,8.3056488-72.3270416c0.0263214-0.0671692,0.033699-0.101944,0.033699-0.101944
					c8.2867279-24.3605652,22.033905-46.1677475,40.1695786-64.0847626l47.4398193-46.862812
					c-35.2121429,34.7856255-53.8313751,84.1760559-48.325264,138.5049896
					c0.7635574,7.4862061,1.977211,15.0800018,3.6764145,22.7283783c0.4213791,1.9568176,0.8849106,3.8862305,1.6138153,6.7935638
					c0.6309738,2.3407745,1.4453278,5.3026581,2.557724,9.0310516
					c7.4266205,24.7125854,25.5982666,72.6715851,58.8183136,130.0572968
					C220.0114746,418.3016357,271.0211792,488.4241638,343.260437,553.1334839z"/>
			</g>
			
				<linearGradient id="SVGID_6_" gradientUnits="userSpaceOnUse" x1="202.0153961" y1="26.2722282" x2="86.5608673" y2="251.645813" gradientTransform="matrix(0.9782101 0.2076175 -0.2076175 0.9782101 54.1946678 83.6251144)">
				<stop  offset="0" style="stop-color:#CD0406"/>
				<stop  offset="1" style="stop-color:#6B0400"/>
			</linearGradient>
			<path fill="url(#SVGID_6_)" d="M185.3757324,358.4449463c-13.4377747,13.4938049-29.0505219,30.7215576-44.5321503,51.8452759
				c-35.0692978-59.5849609-54.0867157-109.6151428-61.7118912-135.0489197
				c-1.1240845-3.7308655-1.9409103-6.6811218-2.5717926-9.0219727c-0.72892-2.9072571-1.1900635-4.8482971-1.6139069-6.7934875
				c-1.8446732-8.3341064-3.1250458-16.5847015-3.8600082-24.7196198
				c17.3575363-15.0506744,33.1845245-30.7171936,47.6234818-44.8715668
				c0.7635574,7.4862061,1.977211,15.0800018,3.6764145,22.7283783c0.4213791,1.9568176,0.8849106,3.8862305,1.6138153,6.7935638
				c0.6309738,2.3407745,1.4453278,5.3026581,2.557724,9.0310516
				C133.9840393,253.100235,152.1556854,301.0592346,185.3757324,358.4449463z"/>
			
				<linearGradient id="SVGID_7_" gradientUnits="userSpaceOnUse" x1="130.7841187" y1="309.0821228" x2="216.1888428" y2="245.6216583" gradientTransform="matrix(0.9782101 0.2076175 -0.2076175 0.9782101 54.1946678 83.6251144)">
				<stop  offset="0" style="stop-color:#EFA196"/>
				<stop  offset="1" style="stop-color:#BF312E"/>
			</linearGradient>
			<path fill="url(#SVGID_7_)" d="M295.8321838,599.9986572c-70.2548981-62.9177856-120.4212494-130.95755-154.9886017-189.7084351
				c-35.0692978-59.5849609-54.0867157-109.6151428-61.7118912-135.0489197
				c-1.1240845-3.7308655-1.9409103-6.6811218-2.5717926-9.0219727c-0.72892-2.9072571-1.1900635-4.8482971-1.6139069-6.7934875
				c-1.8446732-8.3341064-3.1250458-16.5847015-3.8600082-24.7196198
				c-2.3216476-25.5692902,0.7107468-50.0265045,8.3056488-72.3270416
				c-0.9016113,2.8765564-19.9519844,67.7816315,29.4853668,170.1651306
				C159.424881,437.2369995,246.1340485,554.0912476,295.8321838,599.9986572z"/>
			<g>
				
					<linearGradient id="SVGID_8_" gradientUnits="userSpaceOnUse" x1="332.8883972" y1="-12.2279243" x2="138.9605408" y2="411.210907" gradientTransform="matrix(0.9782101 0.2076175 -0.2076175 0.9782101 54.1946678 83.6251144)">
					<stop  offset="0" style="stop-color:#E9585B"/>
					<stop  offset="1" style="stop-color:#A33D3D"/>
				</linearGradient>
				<path fill="url(#SVGID_8_)" d="M528.9545898,195.7831421c-0.4641113-3.4695587-0.9279175-6.3690948-1.4801636-9.6511841
					c-0.3526001-1.8815918-0.725708-3.7796783-1.1223145-5.6827545
					C505.0955811,79.6087875,407.6306152,1.8334204,302.7105408,0.0336321
					c-6.0521545-0.108334-12.1237183,0.0460218-18.2236938,0.4490177
					c-69.5229034,4.7065067-123.9354401,42.486393-149.943512,96.2382355
					c-1.227829,2.5283661-2.3909607,5.0947418-3.4869385,7.6875076c-0.2489777,0.6019287-0.4980469,1.2039185-0.7561798,1.7917709
					c-12.925148,31.6461029-16.3805771,68.1515961-7.9143372,106.3628693
					c0.4213791,1.9568176,0.8849106,3.8862305,1.6138153,6.7935638c0.6309738,2.3407745,1.4453278,5.3026581,2.557724,9.0310516
					c15.1618347,50.4850616,75.201416,197.9841461,216.7030182,324.7458496
					c71.070282-61.5885925,117.6025085-131.9986267,146.3856201-194.8259583
					c1.2894592-2.8184204,2.5414734-5.6326904,3.7630005-8.4170532
					C523.7520142,280.6279907,532.4400635,221.6964874,528.9545898,195.7831421z M351.9726868,312.862854
					c-4.4249268,0.3947449-8.8560791,0.5334167-13.2661743,0.458374
					c-62.1641846-1.0557251-120.6873779-46.6899109-133.989975-107.3057404
					c-4.7830811-21.7991333-3.0907745-42.6847229,3.8151245-60.9964905
					c2.6679077-7.0852509,6.1036682-13.7892761,10.2736359-20.0100479c0.1444855-0.223999,0.2890472-0.4479218,0.4452209-0.6694412
					c0.1114807-0.1824646,0.232132-0.350914,0.3527527-0.5192947c0.0213928-0.0439377,0.0404053-0.0763168,0.0710144-0.106163
					c17.3006897-25.0666733,46.2113953-42.1034241,81.7897339-44.6773834
					c3.8418579-0.2759628,7.684021-0.3820038,11.5125427-0.3091736
					c62.7664795,1.0744781,121.2505493,47.4643173,134.1420593,108.0171509
					c4.8396912,22.7326813,2.6205139,44.5007782-5.2412415,63.3736115
					c-3.5093689,8.4223938-8.1333618,16.2686768-13.7490845,23.3588562
					C410.8727417,295.3036194,384.2499084,310.0732727,351.9726868,312.862854z"/>
			</g>
			
				<linearGradient id="SVGID_9_" gradientUnits="userSpaceOnUse" x1="362.9139709" y1="-120.0447617" x2="277.5135193" y2="97.0147324" gradientTransform="matrix(0.9782101 0.2076175 -0.2076175 0.9782101 54.1946678 83.6251144)">
				<stop  offset="0.0409153" style="stop-color:#F2DAE8"/>
				<stop  offset="1" style="stop-color:#F3B8BE;stop-opacity:0"/>
			</linearGradient>
			<path opacity="0.7" fill="url(#SVGID_9_)" d="M493.4090576,349.8904724
				c-1.2215271,2.7843628-2.4735413,5.5986328-3.7630005,8.4170532
				c-18.6935425-31.8451843-39.5198975-59.9838562-61.5177612-84.8304138
				c5.6157227-7.0901794,10.2397156-14.9364624,13.7490845-23.3588562
				c7.8617554-18.8728333,10.0809326-40.6409302,5.2412415-63.3736115
				c-12.89151-60.5528336-71.3755798-106.9426727-134.1420593-108.0171509
				c-3.8285217-0.0728302-7.6706848,0.0332108-11.5125427,0.3091736
				c-35.5783386,2.5739594-64.4890442,19.6107101-81.7897339,44.6773834
				c-0.0306091,0.0298462-0.0496216,0.0622253-0.0710144,0.106163c-0.1206207,0.1683807-0.241272,0.3368301-0.3527527,0.5192947
				c-0.1561737,0.2215195-0.3007355,0.4454422-0.4452209,0.6694412
				c-35.3822327-14.9185638-65.2006683-23.5997391-84.2619629-28.288063
				c26.0080719-53.7518425,80.4206085-91.5317307,149.943512-96.2382355
				c6.0999756-0.4029959,12.1715393-0.5573516,18.2236938-0.4490177
				c104.9200745,1.7997882,202.3850403,79.5751572,223.641571,180.4155731
				c0.3966064,1.9030762,0.7697144,3.8011627,1.1223145,5.6827545c0.5522461,3.2820892,1.0160522,6.1816254,1.4801636,9.6511841
				C532.4400635,221.6964874,523.7520142,280.6279907,493.4090576,349.8904724z"/>
			
				<linearGradient id="SVGID_10_" gradientUnits="userSpaceOnUse" x1="446.1798401" y1="-241.5870972" x2="288.418335" y2="86.9838638" gradientTransform="matrix(0.9782101 0.2076175 -0.2076175 0.9782101 54.1946678 83.6251144)">
				<stop  offset="0.0409153" style="stop-color:#F2DAE8"/>
				<stop  offset="1" style="stop-color:#F3B8BE;stop-opacity:0"/>
			</linearGradient>
			<path opacity="0.8" fill="url(#SVGID_10_)" d="M519.2704468,276.1481018l-0.0049438,0.0232239
				c-0.718811,2.7576294-1.4819946,5.5543823-2.2925415,8.4017944c-5.6582336,20.0316467-13.3968811,42.09552-23.5639038,65.3173523
				c-28.423584,64.9043579-75.8842163,138.8886108-150.1486206,203.2430115
				C476.8795471,417.258667,537.1221924,143.9318848,372.2277222,68.7123642
				c-92.4253845-42.1587448-196.9472198-24.9816933-241.9275055,37.4878006
				c0.2581329-0.5878525,0.5072021-1.1898422,0.7561798-1.7917709c7.6196747-18.075386,18.3584442-34.5065613,31.7442932-48.726799
				c0,0,0.0330811-0.0414581,0.1083221-0.1103783c29.4123535-31.2268009,71.5916595-51.7043762,121.5778351-55.0885658
				c6.0999756-0.4029959,12.1715393-0.5573516,18.2236938-0.4490177
				c104.9200745,1.7997882,202.3850403,79.5751572,223.641571,180.4155731
				c0.3966064,1.9030762,0.7697144,3.8011627,1.1223145,5.6827545c0.5522461,3.2820892,1.0160522,6.1816254,1.4801636,9.6511841
				c1.6216431,12.0699921,0.6071167,31.3047333-4.0124512,55.4129486
				C523.4380493,259.0255737,521.5579224,267.3693237,519.2704468,276.1481018z"/>
			<g>
				
					<linearGradient id="SVGID_11_" gradientUnits="userSpaceOnUse" x1="284.1639099" y1="-222.5851898" x2="216.9472198" y2="-30.4245644" gradientTransform="matrix(0.9782101 0.2076175 -0.2076175 0.9782101 54.1946678 83.6251144)">
					<stop  offset="0.0409153" style="stop-color:#F2DAE8"/>
					<stop  offset="1" style="stop-color:#F3B8BE;stop-opacity:0"/>
				</linearGradient>
				<path fill="url(#SVGID_11_)" d="M286.7593994,13.3901024c-55.5735168,11.2174072-30.7951813,40.3511276,2.551239,33.6858559
					s58.1932983,3.8628769,73.7590637-0.9174042S346.3024292,1.3714613,286.7593994,13.3901024z"/>
				
					<linearGradient id="SVGID_12_" gradientUnits="userSpaceOnUse" x1="447.4113159" y1="-165.482193" x2="380.1946411" y2="26.6784401" gradientTransform="matrix(0.9782101 0.2076175 -0.2076175 0.9782101 54.1946678 83.6251144)">
					<stop  offset="0.0409153" style="stop-color:#F2DAE8"/>
					<stop  offset="1" style="stop-color:#F3B8BE;stop-opacity:0"/>
				</linearGradient>
				<path fill="url(#SVGID_12_)" d="M401.390564,48.4309654c-21.653717,1.6195755-19.3529663,16.910862,13.7204285,40.098423
					s66.4010315,77.5524597,65.8297424,152.6123505s43.5185547-44.1178894,16.4685059-108.0638123
					S416.1764832,47.3250618,401.390564,48.4309654z"/>
			</g>
			
				<linearGradient id="SVGID_13_" gradientUnits="userSpaceOnUse" x1="343.3647156" y1="-127.5731888" x2="306.5932312" y2="-17.8518391" gradientTransform="matrix(0.9782101 0.2076175 -0.2076175 0.9782101 54.1946678 83.6251144)">
				<stop  offset="0.0614282" style="stop-color:#FFFFFF"/>
				<stop  offset="1" style="stop-color:#F3B8BE;stop-opacity:0"/>
			</linearGradient>
			<path fill="url(#SVGID_13_)" d="M524.9421387,251.1960907c10.9380493-70.8466797-25.9122925-182.8865662-139.8603516-225.907074
				C248.0431519-26.4492283,166.291687,52.2027092,162.9090118,55.5712166
				c29.4123535-31.2268009,71.5916595-51.7043762,121.5778351-55.0885658
				c6.0999756-0.4029959,12.1715393-0.5573516,18.2236938-0.4490177
				c104.9200745,1.7997882,202.3850403,79.5751572,223.641571,180.4155731
				c0.3966064,1.9030762,0.7697144,3.8011627,1.1223145,5.6827545c0.5522461,3.2820892,1.0160522,6.1816254,1.4801636,9.6511841
				C530.5762329,207.8531342,529.5617065,227.0878754,524.9421387,251.1960907z"/>
			
				<linearGradient id="SVGID_14_" gradientUnits="userSpaceOnUse" x1="497.527771" y1="90.176384" x2="494.7580566" y2="95.9449234" gradientTransform="matrix(0.9782101 0.2076175 -0.2076175 0.9782101 54.1946678 83.6251144)">
				<stop  offset="0.0409153" style="stop-color:#F2DAE8"/>
				<stop  offset="1" style="stop-color:#F3B8BE;stop-opacity:0"/>
			</linearGradient>
			<path fill="url(#SVGID_14_)" d="M519.2655029,276.1713257c-0.718811,2.7576294-1.4819946,5.5543823-2.2925415,8.4017944
				C516.9315186,283.7396851,517.6404419,281.0284424,519.2655029,276.1713257z"/>
			
				<linearGradient id="SVGID_15_" gradientUnits="userSpaceOnUse" x1="300.4075317" y1="75.4217072" x2="161.6248627" y2="341.1253052" gradientTransform="matrix(0.9782101 0.2076175 -0.2076175 0.9782101 54.1946678 83.6251144)">
				<stop  offset="0" style="stop-color:#B42E2C;stop-opacity:0"/>
				<stop  offset="1" style="stop-color:#8C2423"/>
			</linearGradient>
			<path fill="url(#SVGID_15_)" d="M493.4090576,349.8904724c0,0-0.0165405,0.0206909-0.0404663,0.0762939
				C465.2030029,414.2832031,418.3260498,487.51828,345.1949158,551.446228l-1.9344788,1.6872559
				c-54.5299683-50.6799011-114.5392456-134.7900391-159.0740662-214.4516602
				c-0.0091553-0.0140686-0.0091553-0.0140686-0.0091553-0.0140686
				c-25.7525024-46.0635681-46.3366394-90.6543579-57.6885986-126.410202
				c-10.8467941-34.1934967-10.0351868-71.2116241,3.212265-104.5475388c0.44104-1.1068573,0.8937073-2.2113113,1.3555145-3.3016205
				C130.305481,230.9534912,255.6239166,436.5916443,493.4090576,349.8904724z"/>
			
				<linearGradient id="SVGID_16_" gradientUnits="userSpaceOnUse" x1="384.7390442" y1="113.2012482" x2="300.9158936" y2="323.5499268" gradientTransform="matrix(0.9674281 0.2531459 -0.2531459 0.9674281 67.1950836 101.2773895)">
				<stop  offset="0" style="stop-color:#B42E2C;stop-opacity:0"/>
				<stop  offset="1" style="stop-color:#8C2423"/>
			</linearGradient>
			<path fill="url(#SVGID_16_)" d="M299.6891174,394.7224731c-38.0445862-15.1684875-38.3725281,18.5684204,20.3987427,37.6253662
				c58.7713013,19.0569763,94.3285828-20.2746277,87.4404907-27.3901978
				C400.6402588,397.8421021,350.3919373,414.9378052,299.6891174,394.7224731z"/>
			
				<linearGradient id="SVGID_17_" gradientUnits="userSpaceOnUse" x1="362.6277466" y1="132.0068665" x2="278.8045959" y2="342.3555298" gradientTransform="matrix(0.9782101 0.2076175 -0.2076175 0.9782101 54.1946678 83.6251144)">
				<stop  offset="0" style="stop-color:#B42E2C;stop-opacity:0"/>
				<stop  offset="1" style="stop-color:#8C2423"/>
			</linearGradient>
			<path fill="url(#SVGID_17_)" d="M493.3685913,349.9667664C465.2030029,414.2832031,418.3260498,487.51828,345.1949158,551.446228
				l-1.9344788,1.6872559c-54.5299683-50.6799011-114.5392456-134.7900391-159.0740662-214.4516602
				c1.2516022,1.5873413,88.5192261,112.0969543,169.6556396,112.5473328
				C434.2758789,451.6758728,491.5991821,353.0471191,493.3685913,349.9667664z"/>
			
				<linearGradient id="SVGID_18_" gradientUnits="userSpaceOnUse" x1="246.1009369" y1="181.2622681" x2="276.1683655" y2="94.2249832" gradientTransform="matrix(0.9782101 0.2076175 -0.2076175 0.9782101 54.1946678 83.6251144)">
				<stop  offset="0.0716846" style="stop-color:#F6C493"/>
				<stop  offset="1" style="stop-color:#F3B8BE;stop-opacity:0"/>
			</linearGradient>
			<path fill="url(#SVGID_18_)" d="M441.8773804,250.1182556c-11.8424683,38.3147278-87.8100891,106.9801941-185.5831909,42.1708374
				c-67.2831573-44.598938-60.8152771-115.6511383-47.7625275-147.2700958
				c-6.905899,18.3117676-8.5982056,39.1973572-3.8151245,60.9964905
				c13.302597,60.6158295,71.8257904,106.2500153,133.989975,107.3057404
				c4.4100952,0.0750427,8.8412476-0.0636292,13.2661743-0.458374
				C394.762146,309.1638184,427.6020508,284.4122009,441.8773804,250.1182556z"/>
			<g>
				
					<linearGradient id="SVGID_19_" gradientUnits="userSpaceOnUse" x1="321.999054" y1="-17.218235" x2="128.0655975" y2="406.2327576" gradientTransform="matrix(0.9782101 0.2076175 -0.2076175 0.9782101 54.1946678 83.6251144)">
					<stop  offset="0" style="stop-color:#E9585B"/>
					<stop  offset="1" style="stop-color:#A33D3D"/>
				</linearGradient>
				<path fill="url(#SVGID_19_)" d="M404.1738892,238.1386108c-1.1075745,2.1901398-2.3328247,4.3068085-3.666748,6.3639984
					c-0.6822815,1.0435181-1.3994141,2.0797119-2.1488342,3.0968323c-0.0024719,0.0116119-0.0190125,0.0323792-0.0214539,0.0439911
					c-11.8543396,16.1458435-30.8858948,27.1428223-54.17099,29.1004333
					c-2.9993591,0.2485962-5.9924011,0.3530579-8.9766541,0.3016968
					c-42.9141541-0.741272-83.2449646-32.2798767-92.3717499-74.0630341
					c-0.3377838-1.5510254-0.6381989-3.1062622-0.8806763-4.6492767c-0.6844635-4.3166199-1.0043182-8.5800476-0.9693298-12.7439575
					c0.1136932-16.4187164,5.6152191-31.4271698,15.2211456-43.3211365
					c0.2975159-0.3733673,0.6091003-0.7558899,0.9182434-1.1268768c0,0,0.0306091-0.0298462,0.0776978-0.0804596
					c1.6373901-1.9443054,3.3901062-3.8035278,5.2557068-5.5659485
					c11.8499756-11.2115707,28.0047302-18.5385971,46.8959045-19.9615173
					c2.7218933-0.1983795,5.4424744-0.2758102,8.1358948-0.225563
					c43.2074585,0.7308044,83.5314331,32.6439285,92.4586182,74.3967819
					c1.1161194,5.1963806,1.6886597,10.3259277,1.7556458,15.3239136c0.082428,4.4677887-0.2503662,8.8352356-0.9677734,13.0725708
					C409.5509644,225.2015991,407.3223267,231.9314423,404.1738892,238.1386108z"/>
			</g>
			
				<linearGradient id="SVGID_20_" gradientUnits="userSpaceOnUse" x1="358.6996765" y1="-121.7028351" x2="273.2992249" y2="95.3566589" gradientTransform="matrix(0.9782101 0.2076175 -0.2076175 0.9782101 54.1946678 83.6251144)">
				<stop  offset="0.0409153" style="stop-color:#F2DAE8"/>
				<stop  offset="1" style="stop-color:#F3B8BE;stop-opacity:0"/>
			</linearGradient>
			<path opacity="0.6" fill="url(#SVGID_20_)" d="M410.7185364,218.101059
				c-1.167572,7.1005402-3.3962097,13.8303833-6.5446472,20.0375519c-1.1075745,2.1901398-2.3328247,4.3068085-3.666748,6.3639984
				c-47.6098022-46.4342346-98.629425-79.2593231-144.3185425-102.2344513
				c0.2975159-0.3733673,0.6091003-0.7558899,0.9182434-1.1268768c0,0,0.0306091-0.0298462,0.0776978-0.0804596
				c1.6373901-1.9443054,3.3901062-3.8035278,5.2557068-5.5659485
				c11.8499756-11.2115707,28.0047302-18.5385971,46.8959045-19.9615173
				c2.7218933-0.1983795,5.4424744-0.2758102,8.1358948-0.225563c43.2074585,0.7308044,83.5314331,32.6439285,92.4586182,74.3967819
				c1.1161194,5.1963806,1.6886597,10.3259277,1.7556458,15.3239136
				C411.7687378,209.4962769,411.4359436,213.8637238,410.7185364,218.101059z"/>
			
				<linearGradient id="SVGID_21_" gradientUnits="userSpaceOnUse" x1="354.1907654" y1="-91.7140579" x2="298.4404602" y2="43.5100899" gradientTransform="matrix(0.9782101 0.2076175 -0.2076175 0.9782101 54.1946678 83.6251144)">
				<stop  offset="0.0409153" style="stop-color:#F2DAE8"/>
				<stop  offset="1" style="stop-color:#F3B8BE;stop-opacity:0"/>
			</linearGradient>
			<path fill="url(#SVGID_21_)" d="M313.2467957,128.5499725c-31.6878052,3.5835724-35.5644226,30.4465027,5.5870361,32.7133789
				s57.8618469,32.0865021,63.1331177,58.6698761s32.6801758-22.5704651,8.4805298-55.1922302
				C366.2478027,132.1192169,334.3679504,126.1613693,313.2467957,128.5499725z"/>
			
				<linearGradient id="SVGID_22_" gradientUnits="userSpaceOnUse" x1="290.5994568" y1="51.01894" x2="237.8145752" y2="182.0914764" gradientTransform="matrix(0.9782101 0.2076175 -0.2076175 0.9782101 54.1946678 83.6251144)">
				<stop  offset="0" style="stop-color:#B42E2C;stop-opacity:0"/>
				<stop  offset="1" style="stop-color:#A32926"/>
			</linearGradient>
			<path fill="url(#SVGID_22_)" d="M404.1738892,238.1386108c-1.674469,3.3188324-3.6168518,6.4716187-5.8155823,9.4608307
				c-0.0024719,0.0116119-0.0190125,0.0323792-0.0214539,0.0439911
				c-11.8543396,16.1458435-30.8858948,27.1428223-54.17099,29.1004333
				c-2.9993591,0.2485962-5.9924011,0.3530579-8.9766541,0.3016968
				c-42.9141541-0.741272-83.2449646-32.2798767-92.3717499-74.0630341
				c-5.166153-23.6507874,0.7348938-45.7408752,14.2893829-61.8412476c0,0,0.0306091-0.0298462,0.0776978-0.0804596
				c1.6373901-1.9443054,3.3901062-3.8035278,5.2557068-5.5659485
				C263.0506287,178.2108917,321.5531616,256.9082336,404.1738892,238.1386108z"/>
			
				<linearGradient id="SVGID_23_" gradientUnits="userSpaceOnUse" x1="319.7025452" y1="-25.7449169" x2="296.3744202" y2="36.331665" gradientTransform="matrix(0.9782101 0.2076175 -0.2076175 0.9782101 54.1946678 83.6251144)">
				<stop  offset="0.0716846" style="stop-color:#F6C493"/>
				<stop  offset="1" style="stop-color:#F3B8BE;stop-opacity:0"/>
			</linearGradient>
			<path fill="url(#SVGID_23_)" d="M398.3583069,247.5994415c23.3499451-42.5416412,2.945343-104.604187-53.9780579-121.8392792
				c-55.2705078-16.7387772-85.4693298,13.508606-87.1957092,15.3006592
				c12.100708-14.3353577,30.291687-23.8858109,52.1516113-25.5274658c2.7218933-0.1983795,5.4424744-0.2758102,8.1358948-0.225563
				c43.2074585,0.7308044,83.5314331,32.6439285,92.4586182,74.3967819
				C414.5860596,211.4765472,409.8508301,231.9588165,398.3583069,247.5994415z"/>
			<g>
				
					<linearGradient id="SVGID_24_" gradientUnits="userSpaceOnUse" x1="343.5755005" y1="411.6396484" x2="402.1083374" y2="411.6396484" gradientTransform="matrix(0.9782101 0.2076175 -0.2076175 0.9782101 54.1946678 83.6251144)">
					<stop  offset="0" style="stop-color:#CD0406"/>
					<stop  offset="1" style="stop-color:#6B0400"/>
				</linearGradient>
				<path fill="url(#SVGID_24_)" d="M371.0707703,527.4073486l-47.4369812,46.861145
					C314.8127747,582.9824829,305.5496216,591.5736084,295.8268738,600l47.4369507-46.861145
					C352.9865723,544.7124634,362.2496948,536.1213379,371.0707703,527.4073486z"/>
			</g>
		</g>
	</g>
	
		<linearGradient id="SVGID_25_" gradientUnits="userSpaceOnUse" x1="224.7294464" y1="96.8783569" x2="213.6584625" y2="-3.9466691" gradientTransform="matrix(0.9782101 0.2076175 -0.2076175 0.9782101 54.1946678 83.6251144)">
		<stop  offset="0" style="stop-color:#B42E2C;stop-opacity:0"/>
		<stop  offset="1" style="stop-color:#A32926"/>
	</linearGradient>
	<path fill="url(#SVGID_25_)" d="M251.3910828,199.9518127c-3.6568756-0.4244385-6.8003235-0.9825134-9.4542999-1.6185608
		c-0.6844635-4.3166199-1.0043182-8.5800476-0.9693298-12.7439575c3.0513916-0.3224335,6.6899872-0.3262482,10.821579,0.0898438
		C279.2895203,188.4844055,282.9411316,203.6165619,251.3910828,199.9518127z"/>
	
		<linearGradient id="SVGID_26_" gradientUnits="userSpaceOnUse" x1="363.681427" y1="81.6208801" x2="352.6104431" y2="-19.2041416" gradientTransform="matrix(0.9782101 0.2076175 -0.2076175 0.9782101 54.1946678 83.6251144)">
		<stop  offset="0" style="stop-color:#B42E2C;stop-opacity:0"/>
		<stop  offset="1" style="stop-color:#A32926"/>
	</linearGradient>
	<path fill="url(#SVGID_26_)" d="M410.7185364,218.101059c-2.6734314,0.0267487-5.8003845-0.1518555-9.3619385-0.5682678
		c-31.5616455-3.6672211-24.5885315-16.8111725,0.3979492-14.2726746c3.7735901,0.3885956,7.1001892,0.9976807,9.9317627,1.7683716
		C411.7687378,209.4962769,411.4359436,213.8637238,410.7185364,218.101059z"/>
</g>
</svg>
