<?xml version="1.0" encoding="iso-8859-1"?>
<!-- Generator: Adobe Illustrator 19.2.0, SVG Export Plug-In . SVG Version: 6.00 Build 0)  -->
<svg version="1.1" id="Layer_1" xmlns="http://www.w3.org/2000/svg" xmlns:xlink="http://www.w3.org/1999/xlink" x="0px" y="0px"
	 viewBox="0 0 600 600" enable-background="new 0 0 600 600" xml:space="preserve">
<g>
	<g>
		
			<linearGradient id="SVGID_1_" gradientUnits="userSpaceOnUse" x1="288.9779663" y1="115.438324" x2="327.6902466" y2="182.3049774">
			<stop  offset="0.1589744" style="stop-color:#1E83AD"/>
			<stop  offset="1" style="stop-color:#223F57"/>
		</linearGradient>
		<path fill="url(#SVGID_1_)" d="M296.3585205,113.411499l42.3731689-50.406868
			c-22.675293,26.9744186-32.3145447,64.4139252-23.0023193,102.7855301
			c2.3120117,9.5266266,5.3360901,18.5463409,9.4324951,26.9227295l-42.3731079,50.4068909
			c-4.0964661-8.3764038-7.1205444-17.3961029-9.4324951-26.9227295
			C264.0439758,177.8254242,273.6832275,140.3859253,296.3585205,113.411499z"/>
		<g>
			
				<linearGradient id="SVGID_2_" gradientUnits="userSpaceOnUse" x1="46.0028267" y1="149.0705719" x2="67.3086472" y2="266.8132935">
				<stop  offset="0.1589744" style="stop-color:#1E83AD"/>
				<stop  offset="1" style="stop-color:#223F57"/>
			</linearGradient>
			<path fill="url(#SVGID_2_)" d="M123.3459702,264.7072144l-42.3728333,50.4017029
				c-35.9954224-15.2923584-65.6671982-47.0048523-76.595993-86.9744263
				c-0.3088565-1.1680756-0.617631-2.3361359-0.8996091-3.5041962c-5.3704476-22.1665344-4.2963743-43.822876,1.6782651-63.6398468
				l42.3728294-50.401619c-5.9745598,19.8035202-7.0487137,41.4733047-1.6782646,63.6263962
				c2.5644341,10.5931549,6.444603,20.6224976,11.4256401,29.9671173
				C71.8299561,231.558136,95.7284317,252.9593658,123.3459702,264.7072144z"/>
			<linearGradient id="SVGID_3_" gradientUnits="userSpaceOnUse" x1="52.3424568" y1="172.5631104" x2="63.8022156" y2="246.04039">
				<stop  offset="0" style="stop-color:#1D83B0;stop-opacity:0"/>
				<stop  offset="1" style="stop-color:#233E59"/>
			</linearGradient>
			<path fill="url(#SVGID_3_)" d="M123.3459702,264.7072144l-42.3728333,50.4017029
				c-35.9954224-15.2923584-65.6671982-47.0048523-76.595993-86.9744263
				c14.3256464-0.2953339,32.9745445-8.4450073,52.8988609-23.9521484
				C71.8299561,231.558136,95.7284317,252.9593658,123.3459702,264.7072144z"/>
		</g>
		<g>
			
				<linearGradient id="SVGID_4_" gradientUnits="userSpaceOnUse" x1="74.1169739" y1="273.3728333" x2="122.3341141" y2="370.9284363">
				<stop  offset="0.1589744" style="stop-color:#1E83AD"/>
				<stop  offset="1" style="stop-color:#223F57"/>
			</linearGradient>
			<path fill="url(#SVGID_4_)" d="M190.6242371,361.9123535l-42.3728333,50.4016418
				c-34.8139191-0.9532166-68.2046738-16.5812378-92.1971436-41.8357544
				c-3.1283112-3.2894287-6.0820732-6.7265015-8.8747292-10.3381348c-4.7124977-6.0954285-8.928318-12.620575-12.5399475-19.5350037
				c-4.8065739-9.1835022-8.5793114-19.038208-11.1034279-29.4300232l42.3728294-50.4017029
				c3.8264923,15.7354736,10.4857941,30.2221985,19.3067627,43.017334
				c4.5649185,6.645874,9.7339401,12.8353882,15.3729248,18.5011597c3.04776,3.0745544,6.229744,5.9880676,9.5459518,8.7404175
				C132.7173767,349.7885437,161.1673279,361.1067505,190.6242371,361.9123535z"/>
			
				<linearGradient id="SVGID_5_" gradientUnits="userSpaceOnUse" x1="73.0711899" y1="240.86026" x2="115.7317123" y2="347.2271729">
				<stop  offset="0" style="stop-color:#1D83B0;stop-opacity:0"/>
				<stop  offset="1" style="stop-color:#233E59"/>
			</linearGradient>
			<path fill="url(#SVGID_5_)" d="M190.6242371,361.9123535l-42.3728333,50.4016418
				c-34.8139191-0.9532166-68.2046738-16.5812378-92.1971436-41.8357544
				c16.6215401-6.2566223,37.5260201-23.0258484,54.0803642-39.4459534
				C132.7173767,349.7885437,161.1673279,361.1067505,190.6242371,361.9123535z"/>
			
				<linearGradient id="SVGID_6_" gradientUnits="userSpaceOnUse" x1="32.9061775" y1="244.9099884" x2="80.2909851" y2="363.0561218">
				<stop  offset="0" style="stop-color:#1D83B0;stop-opacity:0"/>
				<stop  offset="1" style="stop-color:#233E59"/>
			</linearGradient>
			<path fill="url(#SVGID_6_)" d="M100.5886765,322.2918701c-10.3112488,9.8144836-27.1878891,22.341095-53.4091415,37.8482361
				c-4.7124977-6.0954285-8.928318-12.620575-12.5399475-19.5350037
				c6.8876038-5.1958923,34.169487-25.1739502,50.5761642-36.8143921
				C89.7806702,310.4365845,94.9496918,316.6260986,100.5886765,322.2918701z"/>
		</g>
		<g>
			
				<linearGradient id="SVGID_7_" gradientUnits="userSpaceOnUse" x1="143.7979431" y1="380.2473145" x2="211.0795593" y2="469.9561462">
				<stop  offset="0.1589744" style="stop-color:#1E83AD"/>
				<stop  offset="1" style="stop-color:#223F57"/>
			</linearGradient>
			<path fill="url(#SVGID_7_)" d="M269.2879028,437.3134155l-42.3728333,50.4017029
				c-28.2888489,4.3500366-56.5374451-1.4769287-80.8252563-14.7419434
				c-2.8195343-1.5439453-5.5718689-3.1819763-8.2705383-4.9139099
				c-6.8741608-4.4038086-13.3589172-9.4251709-19.3604355-14.9969482
				c-9.2237396-8.5524292-17.2928467-18.4072571-23.8715973-29.2958069l42.3728256-50.4150696
				c15.5071564,25.6707458,39.3653107,45.5682678,66.8217468,56.3628235
				C224.2700806,437.7833862,246.7722778,440.7773743,269.2879028,437.3134155z"/>
			
				<linearGradient id="SVGID_8_" gradientUnits="userSpaceOnUse" x1="154.6781616" y1="353.3291016" x2="193.6213226" y2="428.1246948">
				<stop  offset="0" style="stop-color:#1D83B0;stop-opacity:0"/>
				<stop  offset="1" style="stop-color:#233E59"/>
			</linearGradient>
			<path fill="url(#SVGID_8_)" d="M269.2879028,437.3134155l-42.3728333,50.4017029
				c-28.2888489,4.3500366-56.5374451-1.4769287-80.8252563-14.7419434
				c29.0675049-6.3907471,47.4344177-27.0939026,57.6920013-43.2589111
				C224.2700806,437.7833862,246.7722778,440.7773743,269.2879028,437.3134155z"/>
			
				<linearGradient id="SVGID_9_" gradientUnits="userSpaceOnUse" x1="108.8573151" y1="377.1862183" x2="147.8004761" y2="451.9818115">
				<stop  offset="0" style="stop-color:#1D83B0;stop-opacity:0"/>
				<stop  offset="1" style="stop-color:#233E59"/>
			</linearGradient>
			<path fill="url(#SVGID_9_)" d="M137.8192749,468.0592651c-6.8741608-4.4038086-13.3589172-9.4251709-19.3604355-14.9969482
				c10.7274551-9.9756165,26.5569077-26.9462585,38.0362167-31.7662659
				C170.5521698,415.4019775,163.1006927,454.2438049,137.8192749,468.0592651z"/>
		</g>
		
			<linearGradient id="SVGID_10_" gradientUnits="userSpaceOnUse" x1="261.0918274" y1="417.5110779" x2="294.3362122" y2="585.5799561">
			<stop  offset="0.1589744" style="stop-color:#1E83AD"/>
			<stop  offset="1" style="stop-color:#223F57"/>
		</linearGradient>
		<path fill="url(#SVGID_10_)" d="M493.5040894,432.9231262l-27.6040955,32.8402405
			c-0.026886,0.026886-0.0403137,0.0403137-0.0671997,0.0671082l-14.7015381,17.4942627
			c-31.0546265,36.9352722-72.0311584,67.6004944-123.5606079,87.6725769
			c-21.1863708,8.2570801-44.1585388,14.7150269-68.9430847,19.09198
			c-27.8324127,4.9004517-55.6512909,6.3639526-83.0137177,4.6588135h-0.013443
			c-39.2848358-2.4435425-77.6432724-11.4122314-113.8400421-26.1004028
			c-0.0939941-0.0402222-0.1477509-0.0536499-0.1477509-0.0536499l42.3729134-50.4017334
			c37.3917007,15.1984253,77.1061935,24.2879028,117.7738724,26.3689575
			c26.140625,1.3560181,52.684082-0.201355,79.2409973-4.887146c22.1530762-3.9069824,42.8561401-9.4921875,62.1360168-16.5275269
			C417.8747253,503.1819458,461.0934143,471.4694519,493.5040894,432.9231262z"/>
		
			<linearGradient id="SVGID_11_" gradientUnits="userSpaceOnUse" x1="199.8597717" y1="414.3105164" x2="257.1140137" y2="533.4362793">
			<stop  offset="0" style="stop-color:#1D83B0;stop-opacity:0"/>
			<stop  offset="1" style="stop-color:#233E59"/>
		</linearGradient>
		<path fill="url(#SVGID_11_)" d="M363.1364136,523.1466064c-11.2242126,15.3997803-23.7239075,32.3032227-35.5657654,47.850708
			c-21.1863708,8.2570801-44.1585388,14.7150269-68.9430847,19.09198
			c-27.8324127,4.9004517-55.6512909,6.3639526-83.0137177,4.6588135
			c14.3256378-15.6951294,31.0948486-33.7532959,46.1455536-50.1868286c26.140625,1.3560181,52.684082-0.201355,79.2409973-4.887146
			C323.1534729,535.7671509,343.8565369,530.1819458,363.1364136,523.1466064z"/>
		
			<linearGradient id="SVGID_12_" gradientUnits="userSpaceOnUse" x1="262.6969299" y1="675.5897827" x2="264.0725403" y2="477.4995117">
			<stop  offset="0.1589744" style="stop-color:#EEF2CF"/>
			<stop  offset="1" style="stop-color:#73B7D5;stop-opacity:0"/>
		</linearGradient>
		<path fill="url(#SVGID_12_)" d="M465.8327942,465.8304749l-14.7015381,17.4942627
			c-43.822876,52.1336365-107.4223938,91.7541199-192.5036926,106.7645569
			c-67.8153534,11.9491577-135.469574,3.4772949-196.8672028-21.4415894
			C68.4331055,570.9838257,296.0327148,648.8016968,465.8327942,465.8304749z"/>
		
			<linearGradient id="SVGID_13_" gradientUnits="userSpaceOnUse" x1="318.9188232" y1="56.7152824" x2="348.6264343" y2="608.927002">
			<stop  offset="0.1589744" style="stop-color:#43B4E2"/>
			<stop  offset="1" style="stop-color:#00648F"/>
		</linearGradient>
		<path fill="url(#SVGID_13_)" d="M559.25177,137.5618591c8.6062012,35.4584198,11.4927368,73.185791,8.3242188,110.8594818
			c-1.4231567,16.9169464-4.0547485,33.8069611-7.9482422,50.482254c-0.0134277,0.0134277-0.0134277,0.0402222-0.0134277,0.0536804
			c0,0,0,0,0,0.0134277c0,0,0,0.0134277-0.0134888,0.0134277c-1.4634399,6.296875-3.1148682,12.5668335-4.9542236,18.7831421
			v0.0134277c-0.201416,0.6981201-0.402771,1.3828735-0.6176147,2.0810547
			c-31.3365479,103.9315491-113.1418762,195.1486206-253.028595,219.8123779
			c-67.8691101,11.9761353-135.5770111,3.477417-197.0148621-21.4818115
			c9.7204971-0.4698486,19.253006-1.6915894,29.0943832-3.423645
			c56.0674744-9.8815918,103.1796875-38.2778625,136.2079926-77.4552612
			c-52.6841583,8.0959778-105.2473755-19.1187744-132.3278351-63.9619751
			c7.652832,0.3356628,15.5205994-0.5907593,23.1868591-1.9468079c11.0363159-1.9468079,21.3744354-5.1018982,30.4773102-9.4922791
			c-57.2086792-1.5708313-110.550705-42.7487793-124.7152481-101.1389771
			c17.8299255,4.6856995,38.0898972,6.9547119,57.4369812,3.9338379
			c-37.0427017-15.7487946-67.3856964-48.8710175-77.4956055-90.4919891
			c-5.3704491-22.1530914-4.2962952-43.822876,1.6782646-63.6263962c0,0,0,0,0.0134392,0.013443
			c76.9585266,62.4716873,176.7548981,94.815239,277.6253052,82.1141129c0,0,0,0-0.0134277-0.013443
			c-4.0949402-8.3778839-7.1158142-17.3867645-9.4251709-26.9193573
			c-1.7722473-7.2634888-2.8597717-14.5001831-3.3027649-21.6428986
			c-3.5982666-57.853096,34.8675842-109.2617645,93.9425354-119.6804428
			c34.2097168-6.0283146,69.1176147,2.9940796,96.8157043,22.5961819
			c25.93927-10.2710152,49.1530151-24.5563431,68.9699707-42.4937019
			c-2.0944824,29.7388859-15.3862915,56.4568977-36.6264038,75.7099075
			C558.9429932,72.9420242,580.5724487,62.5233383,600,49.1240158
			c-10.3917847,27.2013321-25.2545166,51.8651047-44.9506226,72.9844437
			C556.5396729,127.1566162,557.9628296,132.245163,559.25177,137.5618591z"/>
		<g>
			
				<linearGradient id="SVGID_14_" gradientUnits="userSpaceOnUse" x1="337.4743347" y1="73.3153305" x2="231.449173" y2="482.7355957">
				<stop  offset="0" style="stop-color:#2CA9DC;stop-opacity:0"/>
				<stop  offset="1" style="stop-color:#2A6186"/>
			</linearGradient>
			<path fill="url(#SVGID_14_)" d="M554.0289917,319.8617554c-1.5439453,5.1153259-3.2088013,10.2037964-5.0079346,15.2520447
				c0,0.026886,0,0.0537415-0.0134277,0.0671082c0,0,0,0.0134277-0.0134277,0.026886
				c-34.5454102,97.4602356-115.0350037,181.0243835-247.9938049,204.4663391
				c-67.8556671,11.9761353-135.5501404,3.477417-196.9746399-21.4683228
				c-0.0268784-0.0134888-0.0402374-0.0134888-0.0402374-0.0134888c9.7204971-0.4698486,19.253006-1.6915894,29.0943832-3.423645
				c56.0674744-9.8815918,103.1796875-38.2778625,136.2079926-77.4552612
				c-52.6841583,8.0959778-105.2473755-19.1187744-132.3278351-63.9619751
				c7.652832,0.3356628,15.5205994-0.5907593,23.1868591-1.9468079c11.0228729-1.9468079,21.3475647-5.088562,30.4370728-9.4788208
				c0.0267944-0.0134583,0.0402374-0.0134583,0.0402374-0.0134583
				c-57.2086792-1.5708313-110.550705-42.7487793-124.7152481-101.1389771
				c17.8299255,4.6856995,38.0898972,6.9547119,57.4369812,3.9338379c-0.013443,0-0.013443-0.0134277-0.0268784-0.0134277h-0.013443
				l-0.0134354-0.0133667c0,0,0,0-0.0133591,0c-37.0158234-15.7623291-67.3185883-48.8710938-77.4284897-90.4651947
				c-5.3704491-22.112854-4.2962952-43.7557526,1.6380272-63.532402c0.0134392-0.013443,0.0134392-0.0268784,0.0134392-0.0268784
				c0.0133591-0.0268784,0.0133591-0.0402374,0.0267982-0.0671158c0,0,0,0,0.0134392,0.013443
				c1.0338364,1.6648254,68.1509933,108.0936966,182.1790161,143.0552673
				c90.250412,27.6846466,44.4270782,117.9887543,137.899704,144.0353851
				C436.6981812,416.9460144,509.964447,376.7885132,554.0289917,319.8617554z"/>
			<g>
				
					<linearGradient id="SVGID_15_" gradientUnits="userSpaceOnUse" x1="41.2084846" y1="219.3746796" x2="88.8605804" y2="185.1772766">
					<stop  offset="0.1589744" style="stop-color:#EEF2CF"/>
					<stop  offset="1" style="stop-color:#73B7D5;stop-opacity:0"/>
				</linearGradient>
				<path fill="url(#SVGID_15_)" d="M123.2922134,264.6804199c0,0-0.0133591,0.0133667-0.0133591,0
					c-37.0158234-15.7623291-67.3185883-48.8710938-77.4284897-90.4651947
					c-5.3704491-22.112854-4.2962952-43.7557526,1.6380272-63.532402c0.0134392-0.013443,0.0134392-0.0268784,0.0134392-0.0268784
					c0.0133591-0.013443,0.0133591-0.0268784,0.0267982-0.0268784
					C47.3272858,112.6564255,37.0025978,214.896347,123.2922134,264.6804199z"/>
				
					<linearGradient id="SVGID_16_" gradientUnits="userSpaceOnUse" x1="90.6855011" y1="364.6556091" x2="144.9299011" y2="287.7042542">
					<stop  offset="0.1589744" style="stop-color:#EEF2CF"/>
					<stop  offset="1" style="stop-color:#73B7D5;stop-opacity:0"/>
				</linearGradient>
				<path fill="url(#SVGID_16_)" d="M190.6242371,361.9123535c-57.2086792-1.5708313-110.550705-42.7487793-124.7152481-101.1389771
					C65.908989,260.7733765,103.4350052,343.5320129,190.6242371,361.9123535z"/>
				
					<linearGradient id="SVGID_17_" gradientUnits="userSpaceOnUse" x1="175.9960327" y1="452.1500244" x2="210.7540283" y2="392.1644287">
					<stop  offset="0.1589744" style="stop-color:#EEF2CF"/>
					<stop  offset="1" style="stop-color:#73B7D5;stop-opacity:0"/>
				</linearGradient>
				<path fill="url(#SVGID_17_)" d="M269.2879028,437.3134155c-52.6841583,8.0959778-105.2473755-19.1187744-132.3278351-63.9619751
					C136.9600677,373.3514404,199.9688416,437.4208374,269.2879028,437.3134155z"/>
				<g>
					
						<linearGradient id="SVGID_18_" gradientUnits="userSpaceOnUse" x1="170.3486481" y1="396.9735413" x2="171.5134735" y2="417.9406433">
						<stop  offset="0" style="stop-color:#286D92;stop-opacity:0"/>
						<stop  offset="1" style="stop-color:#15293B"/>
					</linearGradient>
					<polygon fill="url(#SVGID_18_)" points="185.1742554,420.6919861 152.7151489,457.3654785 189.0647125,422.8826599 
						192.1403046,411.4285583 					"/>
					
						<linearGradient id="SVGID_19_" gradientUnits="userSpaceOnUse" x1="215.5836182" y1="439.4972534" x2="163.365921" y2="433.3260803">
						<stop  offset="0.1589744" style="stop-color:#ECF6FC"/>
						<stop  offset="1" style="stop-color:#73B7D5;stop-opacity:0"/>
					</linearGradient>
					<polygon fill="url(#SVGID_19_)" points="152.7151489,457.3654785 192.1403046,424.6890564 192.1403046,411.4285583 
						189.0647125,422.8826599 					"/>
				</g>
				<g>
					
						<linearGradient id="SVGID_20_" gradientUnits="userSpaceOnUse" x1="191.7158661" y1="410.5716553" x2="192.4797974" y2="424.3223267">
						<stop  offset="0" style="stop-color:#286D92;stop-opacity:0"/>
						<stop  offset="1" style="stop-color:#15293B"/>
					</linearGradient>
					<polygon fill="url(#SVGID_20_)" points="199.7731781,427.9647827 180.7358246,450.1455078 203.66362,430.1554565 
						205.4229279,420.0840149 					"/>
					
						<linearGradient id="SVGID_21_" gradientUnits="userSpaceOnUse" x1="222.5726776" y1="438.6003418" x2="187.7884674" y2="434.4894714">
						<stop  offset="0.1589744" style="stop-color:#ECF6FC"/>
						<stop  offset="1" style="stop-color:#73B7D5;stop-opacity:0"/>
					</linearGradient>
					<polygon fill="url(#SVGID_21_)" points="180.7358246,450.1455078 206.659729,431.2445374 205.4229279,420.0840149 
						203.66362,430.1554565 					"/>
				</g>
				
					<linearGradient id="SVGID_22_" gradientUnits="userSpaceOnUse" x1="342.7923889" y1="578.9454346" x2="329.7636414" y2="457.0335999">
					<stop  offset="0.1589744" style="stop-color:#EEF2CF"/>
					<stop  offset="1" style="stop-color:#73B7D5;stop-opacity:0"/>
				</linearGradient>
				<path fill="url(#SVGID_22_)" d="M549.0076294,335.140686c0.0134277,0.0134277,0,0.0268555,0,0.0402222
					c0,0,0,0.0134277-0.0134277,0.026886c-34.5454102,97.4602356-115.0350037,181.0243835-247.9938049,204.4663391
					c-67.8556671,11.9761353-135.5501404,3.477417-196.9746399-21.4683228
					c2.8732071,0.6444702,153.1517639,33.9277954,271.3687134-8.8612366
					C493.8262939,466.4615479,548.1752319,337.1546021,549.0076294,335.140686z"/>
			</g>
			
				<linearGradient id="SVGID_23_" gradientUnits="userSpaceOnUse" x1="468.5408936" y1="107.2562714" x2="362.5151672" y2="516.6787109">
				<stop  offset="0" style="stop-color:#2CA9DC;stop-opacity:0"/>
				<stop  offset="1" style="stop-color:#2A6186"/>
			</linearGradient>
			<path fill="url(#SVGID_23_)" d="M407.0083618,326.2590332c-63.8189392-4.4318542-66.5110168,45.5555115-2.7333069,45.5555115
				S472.6083069,330.8145752,407.0083618,326.2590332z"/>
			<g>
				
					<linearGradient id="SVGID_24_" gradientUnits="userSpaceOnUse" x1="366.7932739" y1="543.7196655" x2="353.1511536" y2="540.3091431">
					<stop  offset="0" style="stop-color:#286D92;stop-opacity:0"/>
					<stop  offset="1" style="stop-color:#15293B"/>
				</linearGradient>
				<polygon fill="url(#SVGID_24_)" points="351.0822144,527.1207275 321.1864319,559.2888794 356.608551,525.397583 
					356.5066528,514.177124 				"/>
				
					<linearGradient id="SVGID_25_" gradientUnits="userSpaceOnUse" x1="363.6181946" y1="542.2852783" x2="338.1961365" y2="536.5872192">
					<stop  offset="0.1589744" style="stop-color:#ECF6FC"/>
					<stop  offset="1" style="stop-color:#73B7D5;stop-opacity:0"/>
				</linearGradient>
				<polygon fill="url(#SVGID_25_)" points="321.1864319,559.2888794 360.6115723,524.0673218 356.5066528,514.177124 
					356.608551,525.397583 				"/>
			</g>
			<g>
				
					<linearGradient id="SVGID_26_" gradientUnits="userSpaceOnUse" x1="240.6813812" y1="528.8790894" x2="241.3695374" y2="541.2659912">
					<stop  offset="0" style="stop-color:#286D92;stop-opacity:0"/>
					<stop  offset="1" style="stop-color:#15293B"/>
				</linearGradient>
				<polygon fill="url(#SVGID_26_)" points="248.9580841,544.9154053 231.328186,564.49823 252.5590515,545.032959 
					252.4911194,537.4779663 				"/>
				
					<linearGradient id="SVGID_27_" gradientUnits="userSpaceOnUse" x1="268.5491638" y1="554.1364136" x2="237.6118927" y2="550.4801636">
					<stop  offset="0.1589744" style="stop-color:#ECF6FC"/>
					<stop  offset="1" style="stop-color:#73B7D5;stop-opacity:0"/>
				</linearGradient>
				<polygon fill="url(#SVGID_27_)" points="231.328186,564.49823 254.7326813,544.7460327 252.4911194,537.4779663 
					252.5590515,545.032959 				"/>
			</g>
			<g>
				
					<linearGradient id="SVGID_28_" gradientUnits="userSpaceOnUse" x1="85.3590622" y1="300.9376831" x2="86.4303894" y2="320.2215881">
					<stop  offset="0" style="stop-color:#286D92;stop-opacity:0"/>
					<stop  offset="1" style="stop-color:#15293B"/>
				</linearGradient>
				<polygon fill="url(#SVGID_28_)" points="93.7079239,314.8819275 56.2551842,357.1973877 97.0399246,318.5860901 
					118.3936615,315.4310608 				"/>
				
					<linearGradient id="SVGID_29_" gradientUnits="userSpaceOnUse" x1="80.8317642" y1="313.2264404" x2="90.3122482" y2="347.637085">
					<stop  offset="0.1589744" style="stop-color:#ECF6FC"/>
					<stop  offset="1" style="stop-color:#73B7D5;stop-opacity:0"/>
				</linearGradient>
				<polygon fill="url(#SVGID_29_)" points="56.0542641,357.424408 99.7014389,321.4026184 118.3936615,315.4310608 
					97.0399246,318.5860901 				"/>
			</g>
			<g>
				
					<linearGradient id="SVGID_30_" gradientUnits="userSpaceOnUse" x1="39.1729622" y1="169.644165" x2="40.2324638" y2="188.71521">
					<stop  offset="0" style="stop-color:#286D92;stop-opacity:0"/>
					<stop  offset="1" style="stop-color:#15293B"/>
				</linearGradient>
				<polygon fill="url(#SVGID_30_)" points="48.4434242,183.3781586 11.4040804,225.2265778 50.2326279,188.5177307 
					71.0947113,188.8134155 				"/>
				
					<linearGradient id="SVGID_31_" gradientUnits="userSpaceOnUse" x1="34.6313744" y1="183.4771729" x2="43.6425896" y2="216.1845398">
					<stop  offset="0.1589744" style="stop-color:#ECF6FC"/>
					<stop  offset="1" style="stop-color:#73B7D5;stop-opacity:0"/>
				</linearGradient>
				<polygon fill="url(#SVGID_31_)" points="11.2031584,225.4535828 50.8271179,190.242218 71.0947113,188.8134155 
					50.2326279,188.5177307 				"/>
			</g>
		</g>
		<g>
			
				<linearGradient id="SVGID_32_" gradientUnits="userSpaceOnUse" x1="317.0248413" y1="-57.3094711" x2="338.742157" y2="384.2756958">
				<stop  offset="0.1589744" style="stop-color:#D3EAF7"/>
				<stop  offset="1" style="stop-color:#73B7D5;stop-opacity:0"/>
			</linearGradient>
			<path opacity="0.7" fill="url(#SVGID_32_)" d="M559.25177,137.5618591
				c8.6062012,35.4584198,11.4927368,73.185791,8.3242188,110.8594818
				c-0.4431152,16.9975128-3.0343628,34.0352631-7.9482422,50.482254c-0.0134277,0.0134277-0.0134277,0.0402222-0.0134277,0.0536804
				c-13.3321533-76.0858002-77.065979-107.5297546-247.4165955-78.9187012
				C116.404686,252.9459229,48.3744812,112.361084,47.5420685,110.602272
				c76.9585266,62.4716873,176.7548981,94.815239,277.6253052,82.1141129c0,0,0,0-0.0134277-0.013443
				c-4.0949402-8.3778839-7.1158142-17.3867645-9.4251709-26.9193573
				c-1.7722473-7.2634888-2.8597717-14.5001831-3.3027649-21.6428986
				c-3.5982666-57.853096,34.8675842-109.2617645,93.9425354-119.6804428
				c34.2097168-6.0283146,69.1176147,2.9940796,96.8157043,22.5961819
				c25.93927-10.2710152,49.1530151-24.5563431,68.9699707-42.4937019
				c-2.0944824,29.7388859-15.3862915,56.4568977-36.6264038,75.7099075
				C558.9429932,72.9420242,580.5724487,62.5233383,600,49.1240158
				c-10.3917847,27.2013321-25.2545166,51.8651047-44.9506226,72.9844437
				C556.5396729,127.1566162,557.9628296,132.245163,559.25177,137.5618591z"/>
			
				<linearGradient id="SVGID_33_" gradientUnits="userSpaceOnUse" x1="465.3546143" y1="-29.7351532" x2="449.0955505" y2="181.6327362">
				<stop  offset="0.1589744" style="stop-color:#D3EAF7"/>
				<stop  offset="1" style="stop-color:#73B7D5;stop-opacity:0"/>
			</linearGradient>
			<path fill="url(#SVGID_33_)" d="M559.25177,137.5618591c8.6062012,35.4584198,11.4927368,73.185791,8.3242188,110.8594818
				c2.3897705-88.4646454-53.1271973-175.3450928-138.745575-168.2695007
				c-102.0921631,8.4449997-103.6630249,112.5645447-103.6630249,112.5645447s0,0-0.0134277-0.013443
				c-4.0949402-8.3778839-7.1158142-17.3867645-9.4251709-26.9193573
				c-1.7722473-7.2634888-2.8597717-14.5001831-3.3027649-21.6428986
				c-3.5982666-57.853096,34.8675842-109.2617645,93.9425354-119.6804428
				c34.2097168-6.0283146,69.1176147,2.9940796,96.8157043,22.5961819
				c25.93927-10.2710152,49.1530151-24.5563431,68.9699707-42.4937019
				c-2.0944824,29.7388859-15.3862915,56.4568977-36.6264038,75.7099075
				C558.9429932,72.9420242,580.5724487,62.5233383,600,49.1240158
				c-10.3917847,27.2013321-25.2545166,51.8651047-44.9506226,72.9844437
				C556.5396729,127.1566162,557.9628296,132.245163,559.25177,137.5618591z"/>
			
				<linearGradient id="SVGID_34_" gradientUnits="userSpaceOnUse" x1="567.4885254" y1="62.6329575" x2="574.4425659" y2="114.7880783">
				<stop  offset="0.1589744" style="stop-color:#ECF6FC"/>
				<stop  offset="1" style="stop-color:#73B7D5;stop-opacity:0"/>
			</linearGradient>
			<path fill="url(#SVGID_34_)" d="M600,49.1240158c-28.5707397,36.3177185-64.472168,31.148613-64.472168,31.148613
				C558.9429932,72.9420242,580.5724487,62.5233383,600,49.1240158z"/>
			
				<linearGradient id="SVGID_35_" gradientUnits="userSpaceOnUse" x1="184.0401764" y1="159.8722687" x2="162.4827271" y2="236.3664551">
				<stop  offset="0.1589744" style="stop-color:#ECF6FC"/>
				<stop  offset="1" style="stop-color:#73B7D5;stop-opacity:0"/>
			</linearGradient>
			<path fill="url(#SVGID_35_)" d="M325.1673889,192.7163849c-173.5997772,38.747757-276.2558289-80.5029678-277.6253052-82.1141129
				C124.5005951,173.0739594,224.2969666,205.417511,325.1673889,192.7163849z"/>
			
				<linearGradient id="SVGID_36_" gradientUnits="userSpaceOnUse" x1="440.0882263" y1="-27.1196671" x2="446.0709229" y2="255.0631561">
				<stop  offset="0.1589744" style="stop-color:#ECF6FC"/>
				<stop  offset="1" style="stop-color:#73B7D5;stop-opacity:0"/>
			</linearGradient>
			<path fill="url(#SVGID_36_)" d="M572.1542358,4.5627227c-20.6896362,37.4992256-68.728302,55.3827438-68.728302,55.3827438
				s-39.2041931-39.5264969-99.8366089-23.4285126c-86.4776001,22.9451904-91.1499329,107.6371765-91.1499329,107.6371765
				s0,0-0.0133667-0.013443c-3.5982666-57.853096,34.8675842-109.2617645,93.9425354-119.6804428
				c34.2097168-6.0283146,69.1176147,2.9940796,96.8157043,22.5961819
				C529.1235352,36.785408,552.3372803,22.5000801,572.1542358,4.5627227z"/>
			<g>
				
					<linearGradient id="SVGID_37_" gradientUnits="userSpaceOnUse" x1="303.1423035" y1="112.849762" x2="304.2000122" y2="131.8883362">
					<stop  offset="0" style="stop-color:#286D92;stop-opacity:0"/>
					<stop  offset="1" style="stop-color:#15293B"/>
				</linearGradient>
				<polygon fill="url(#SVGID_37_)" points="312.6369324,126.5470428 275.3683472,168.3404388 312.1934814,132.9372559 
					335.05896,131.9272919 				"/>
				
					<linearGradient id="SVGID_38_" gradientUnits="userSpaceOnUse" x1="298.8574829" y1="127.5414276" x2="307.6092834" y2="159.3072815">
					<stop  offset="0.1589744" style="stop-color:#ECF6FC"/>
					<stop  offset="1" style="stop-color:#73B7D5;stop-opacity:0"/>
				</linearGradient>
				<polygon fill="url(#SVGID_38_)" points="275.1674194,168.5674438 312.2138367,135.179184 335.05896,131.9272919 
					312.1934814,132.9372559 				"/>
			</g>
		</g>
	</g>
</g>
</svg>
