<?xml version="1.0" encoding="iso-8859-1"?>
<!-- Generator: Adobe Illustrator 19.2.0, SVG Export Plug-In . SVG Version: 6.00 Build 0)  -->
<svg version="1.1" id="Layer_1" xmlns="http://www.w3.org/2000/svg" xmlns:xlink="http://www.w3.org/1999/xlink" x="0px" y="0px"
	 viewBox="0 0 600 600" enable-background="new 0 0 600 600" xml:space="preserve">
<g>
	<g>
		<g enable-background="new    ">
			<g>
				<g>
					
						<linearGradient id="SVGID_1_" gradientUnits="userSpaceOnUse" x1="128.7583923" y1="355.8994751" x2="337.6559753" y2="527.3395386">
						<stop  offset="0" style="stop-color:#E5E6E7"/>
						<stop  offset="0.9282051" style="stop-color:#59595B"/>
					</linearGradient>
					<path fill="url(#SVGID_1_)" d="M528.5227661,418.9195251l-53.3271179,65.4046631
						c-24.0354919,29.4709778-55.2147522,53.2555847-91.7816162,68.3792419
						c-14.8728638,6.1522217-30.6416626,10.8709717-47.1749573,13.9649658
						c-27.3086853,5.1009521-55.3222046,4.4797363-82.9534607-0.1911011
						c-15.6851807-2.6401367-31.2509308-6.5942993-46.4821472-11.5518188l-87.7676697,43.1132813
						c-1.6126862,0.7884521-3.2612534,1.3260498-4.9217682,1.6365967
						c-12.1491241,2.2697754-24.8597488-7.6454468-24.5850143-20.8817139l1.9114151-96.5719604
						c-26.962265-28.9094238-47.4378281-62.2150269-60.0289497-98.5549927
						c-2.377327-6.8928223-4.4797726-13.8931885-6.2955971-21.0011292
						c-9.62852-37.8212585-10.1063919-75.3796692-2.819252-110.4293671
						c7.7290649-37.200058,24.2026558-71.58078,47.7364044-100.4424896l53.3272324-65.4046783
						c-22.7931061,27.9418488-38.9560852,61.0682526-46.9719162,96.9303436
						c-8.063591,36.0531921-7.8843689,74.8659363,2.0666428,113.9415283
						c1.8277817,7.1676331,3.9541473,14.2396851,6.3672714,21.2042542
						c12.5911942,36.268219,33.0428391,69.5021667,59.9453125,98.3518372l-1.9113312,96.571991
						c-0.2628479,13.2362671,12.4477692,23.1514893,24.5850067,20.8817139
						c1.6604462-0.3105469,3.3209686-0.8481445,4.9217682-1.6366577l87.7796173-43.1132507
						c13.7738647,4.4797668,27.8223572,8.1472168,41.990448,10.7752991
						c29.0766602,5.3638306,58.6551208,6.3433533,87.433197,0.9676208
						c13.9051514-2.5922852,27.2608643-6.3433533,39.9953918-11.1217957
						C469.2345581,475.2452087,502.9343567,450.3018494,528.5227661,418.9195251z"/>
				</g>
				
					<linearGradient id="SVGID_2_" gradientUnits="userSpaceOnUse" x1="310.0763855" y1="408.1451416" x2="357.519043" y2="590.008606">
					<stop  offset="0" style="stop-color:#CFD0D2;stop-opacity:0"/>
					<stop  offset="0.9282051" style="stop-color:#808082"/>
				</linearGradient>
				<path fill="url(#SVGID_2_)" d="M429.561676,490.1419067c-15.4582214,20.9772949-31.752655,43.0656128-46.147644,62.5615234
					c-14.8728638,6.1522217-30.6416626,10.8709717-47.1749573,13.9649658
					c-27.3086853,5.1009521-55.3222046,4.4797363-82.9534607-0.1911011
					c14.3352661-19.4003906,31.800415-43.0535889,48.8474731-66.1812134
					c29.0766602,5.3638306,58.6551208,6.3433533,87.433197,0.9676208
					C403.4714355,498.6714172,416.8271484,494.9203491,429.561676,490.1419067z"/>
				
					<linearGradient id="SVGID_3_" gradientUnits="userSpaceOnUse" x1="87.4698868" y1="215.4746094" x2="11.8256474" y2="371.3475952">
					<stop  offset="0" style="stop-color:#F0F1F1"/>
					<stop  offset="1" style="stop-color:#6D6E70;stop-opacity:0"/>
				</linearGradient>
				<path fill="url(#SVGID_3_)" d="M84.8222656,318.4651489L31.4114799,383.666687
					c-2.377327-6.8928223-4.4797726-13.8931885-6.2955971-21.0011292
					c-9.62852-37.8212585-10.1063919-75.3796692-2.819252-110.4293671
					c15.1833954-19.0539856,34.6316147-43.8898163,54.0917206-68.9168243
					c-8.063591,36.0531921-7.8843689,74.8659363,2.0666428,113.9415283
					C80.2827759,304.4285278,82.4091415,311.5005798,84.8222656,318.4651489z"/>
				<g>
					
						<linearGradient id="SVGID_4_" gradientUnits="userSpaceOnUse" x1="149.2594452" y1="389.8055725" x2="111.4373245" y2="517.0254517">
						<stop  offset="0" style="stop-color:#F0F1F1"/>
						<stop  offset="1" style="stop-color:#6D6E70;stop-opacity:0"/>
					</linearGradient>
					<polygon fill="url(#SVGID_4_)" points="142.8610992,513.3927612 89.5270157,578.7974854 91.4388809,482.227478 
						144.7729492,416.8227539 					"/>
				</g>
				<g opacity="0.7">
					
						<linearGradient id="SVGID_5_" gradientUnits="userSpaceOnUse" x1="163.3362427" y1="447.6446838" x2="184.6776428" y2="609.8392944">
						<stop  offset="0" style="stop-color:#CFD0D2;stop-opacity:0"/>
						<stop  offset="0.9282051" style="stop-color:#808082"/>
					</linearGradient>
					<path fill="url(#SVGID_5_)" d="M260.1426392,489.5207825l-53.3391724,65.4046936l-87.7676697,43.1132813
						c-1.6126862,0.7884521-3.2612534,1.3260498-4.9217682,1.6365967
						c-12.1491241,2.2697754-24.8597488-7.6454468-24.5850143-20.8817139l53.3272324-65.4046631
						c-0.2628479,13.2362671,12.4477692,23.1514893,24.5850067,20.8817139
						c1.6604462-0.3105469,3.3209686-0.8481445,4.9217682-1.6366577L260.1426392,489.5207825z"/>
				</g>
				<g>
					
						<linearGradient id="SVGID_6_" gradientUnits="userSpaceOnUse" x1="176.7072601" y1="445.8853455" x2="198.0486603" y2="608.0799561">
						<stop  offset="0" style="stop-color:#BABCBE;stop-opacity:0"/>
						<stop  offset="0.9282051" style="stop-color:#272525"/>
					</linearGradient>
					<polygon fill="url(#SVGID_6_)" points="260.1421204,489.521759 206.8080597,554.9265137 119.033783,598.0355225 
						172.3678589,532.6307983 					"/>
				</g>
			</g>
			<g>
				<path fill="#F2F0F0" d="M582.6862793,267.5271301c-0.203064,34.3926697-7.6455078,67.6625061-21.1803589,97.874054
					C530.9119873,433.6967773,469.1987,486.3908997,389.5662842,501.2637024
					c-42.8027344,7.9919128-87.385437,1.9472046-129.423645-11.7429199l-55.3819122,27.2011414l-32.3977051,15.9121094
					c-1.6007996,0.7885132-3.261322,1.3261108-4.9217682,1.6366577
					c-12.1372375,2.2697754-24.8478546-7.6454468-24.5850067-20.8817139l1.9113312-96.571991
					c-32.063179-34.3926697-54.963829-75.0092773-66.3125839-119.5560913
					c-7.2631531-28.491394-9.3179092-56.8513336-6.7614365-84.0883331
					c2.6519928-28.4077759,10.2975006-55.6208496,22.2913132-80.5164795
					C125.0924606,67.9562607,185.3841858,18.774353,262.9738464,4.2837768
					C399.0753174-21.125515,540.4450073,69.1628265,574.9332886,204.5475311
					C580.309021,225.6681671,582.817627,246.8007507,582.6862793,267.5271301z"/>
			</g>
			
				<linearGradient id="SVGID_7_" gradientUnits="userSpaceOnUse" x1="265.8799133" y1="463.8665161" x2="392.5401611" y2="20.5557137">
				<stop  offset="0" style="stop-color:#FAF8F3;stop-opacity:0"/>
				<stop  offset="0.9282051" style="stop-color:#99A6B1"/>
			</linearGradient>
			<path fill="url(#SVGID_7_)" d="M582.6862793,267.5271301c-0.203064,34.3926697-7.6455078,67.6625061-21.1803589,97.874054
				C530.9119873,433.6967773,469.1987,486.3908997,389.5662842,501.2637024
				c-42.8027344,7.9919128-87.385437,1.9472046-129.423645-11.7429199l-55.3819122,27.2011414l-32.3977051,15.9121094
				c-1.6007996,0.7885132-3.261322,1.3261108-4.9217682,1.6366577
				c-12.1372375,2.2697754-24.8478546-7.6454468-24.5850067-20.8817139l1.9113312-96.571991
				c-32.063179-34.3926697-54.963829-75.0092773-66.3125839-119.5560913
				c-7.2631531-28.491394-9.3179092-56.8513336-6.7614365-84.0883331
				c2.6519928-28.4077759,10.2975006-55.6208496,22.2913132-80.5164795
				C126.6693497,296.9741821,494.0345154,413.0420837,582.6862793,267.5271301z"/>
			<g>
				
					<linearGradient id="SVGID_8_" gradientUnits="userSpaceOnUse" x1="306.6762085" y1="556.6572266" x2="284.9898987" y2="531.7179565" gradientTransform="matrix(0.999886 -0.0151026 0.0151026 0.999886 -7.414577 -6.0261841)">
					<stop  offset="0" style="stop-color:#A5A7A9;stop-opacity:0"/>
					<stop  offset="0.9282051" style="stop-color:#424243"/>
				</linearGradient>
				<polygon fill="url(#SVGID_8_)" points="301.2211609,499.9578857 265.6097107,551.9093628 309.2590942,501.1713257 
					305.9389038,491.1933899 				"/>
				
					<linearGradient id="SVGID_9_" gradientUnits="userSpaceOnUse" x1="314.8745728" y1="520.0984497" x2="266.9891052" y2="539.2076416" gradientTransform="matrix(0.999886 -0.0151026 0.0151026 0.999886 -7.414577 -6.0261841)">
					<stop  offset="0" style="stop-color:#FFFFFF"/>
					<stop  offset="1" style="stop-color:#919395;stop-opacity:0"/>
				</linearGradient>
				<polygon fill="url(#SVGID_9_)" points="313.0079346,501.6411743 265.6097107,551.9093628 309.2590942,501.1713257 
					305.9389038,491.1933899 				"/>
			</g>
			
				<linearGradient id="SVGID_10_" gradientUnits="userSpaceOnUse" x1="315.171875" y1="376.9918213" x2="340.8882141" y2="197.7338257">
				<stop  offset="0" style="stop-color:#FAF8F3;stop-opacity:0"/>
				<stop  offset="0.9282051" style="stop-color:#99A6B1"/>
			</linearGradient>
			<path fill="url(#SVGID_10_)" d="M192.6040802,169.636261c7.0076141-5.0163727,35.53862-7.6981506,42.2292786-3.7613373
				c6.6906738,3.9367981,43.6118317,51.8706207,42.1228485,58.369812s-14.6801453,17.5887909-14.6801453,17.5887909
				s-2.1077271,20.7546692,0,24.2676392s49.3743286,39.1965027,74.5271301,44.2145081s36.303894,1.1071472,39.649231-1.9554138
				c3.3453369-3.0625916,10.5935364-21.9147034,14.4964294-26.9850769
				c3.9028931-5.0704041,62.077301,7.2142334,75.0855103,12.7805786
				c13.0082397,5.5663452,42.0010986-42.9409637-34.9415283-88.1029358s-168.93927-91.7877731-196.2594757-79.3472061
				S192.6040802,169.636261,192.6040802,169.636261z"/>
			
				<linearGradient id="SVGID_11_" gradientUnits="userSpaceOnUse" x1="274.3355103" y1="516.6812744" x2="312.153656" y2="305.6560669">
				<stop  offset="0" style="stop-color:#FAF8F3;stop-opacity:0"/>
				<stop  offset="0.9282051" style="stop-color:#99A6B1"/>
			</linearGradient>
			<path fill="url(#SVGID_11_)" d="M124.973793,226.8919525c0,0-6.669487,34.9163971,4.4816208,78.4057159
				s45.7195282,83.6333008,54.6404114,95.8995056c8.9208984,12.2662354,12.1074677,17.8417969,12.1074677,17.8417969
				l-3.5992126,35.1371155c0,0-3.7579651,10.0248413,0,13.3701782s60.0820313-22.3022156,60.0820313-22.3022156
				s69.3508453,21.3846741,119.9759064,8.4621277c50.625061-12.9225769,113.0462341-39.3201904,134.5018005-117.8755188
				s-35.927002,15.2249146-73.2832031,37.7867126c-37.3562012,22.5618286-173.7323914,12.9097595-206.7405853-8.7481079
				c-33.0082092-21.6578369-81.5155182-119.3295898-81.5155182-119.3295898L124.973793,226.8919525z"/>
			
				<linearGradient id="SVGID_12_" gradientUnits="userSpaceOnUse" x1="16.1909695" y1="473.0154114" x2="184.6883698" y2="323.8038635">
				<stop  offset="0" style="stop-color:#FFFFFF"/>
				<stop  offset="1" style="stop-color:#FFFFFF;stop-opacity:0"/>
			</linearGradient>
			<path fill="url(#SVGID_12_)" d="M204.7607269,516.7219238l-32.3977051,15.9121094
				c-1.6007996,0.7885132-3.261322,1.3261108-4.9217682,1.6366577
				c-12.1372375,2.2697754-24.8478546-7.6454468-24.5850067-20.8817139l1.9113312-96.571991
				c-32.063179-34.3926697-54.963829-75.0092773-66.3125839-119.5560913
				c-7.2631531-28.491394-9.3179092-56.8513336-6.7614365-84.0883331c0,0,2.1144791,129.2563629,82.7742157,199.1168976
				c0,0-2.1622314,83.5507507-2.8789673,104.4324646C150.8720703,537.6156006,177.9776154,528.2498779,204.7607269,516.7219238z"/>
			<g>
				
					<linearGradient id="SVGID_13_" gradientUnits="userSpaceOnUse" x1="77.0335617" y1="331.7023621" x2="83.6547928" y2="359.0361633">
					<stop  offset="0" style="stop-color:#A5A7A9;stop-opacity:0"/>
					<stop  offset="0.9282051" style="stop-color:#424243"/>
				</linearGradient>
				<polygon fill="url(#SVGID_13_)" points="96.6830597,347.0847778 58.7297211,386.0415649 100.132103,353.9492798 
					112.8245621,349.5537415 				"/>
				
					<linearGradient id="SVGID_14_" gradientUnits="userSpaceOnUse" x1="86.9995651" y1="351.8246155" x2="84.4529419" y2="385.1005554">
					<stop  offset="0" style="stop-color:#FFFFFF"/>
					<stop  offset="1" style="stop-color:#919395;stop-opacity:0"/>
				</linearGradient>
				<polygon fill="url(#SVGID_14_)" points="101.9519882,357.4342041 58.7297211,386.0415649 100.132103,353.9492798 
					112.8245621,349.5537415 				"/>
			</g>
			<g>
				
					<linearGradient id="SVGID_15_" gradientUnits="userSpaceOnUse" x1="85.7760544" y1="383.1580811" x2="60.1669922" y2="333.6472168">
					<stop  offset="0" style="stop-color:#A5A7A9;stop-opacity:0"/>
					<stop  offset="0.9282051" style="stop-color:#424243"/>
				</linearGradient>
				<polygon fill="url(#SVGID_15_)" points="84.8222656,318.4651489 33.8889275,380.642334 89.0196228,329.7078247 
					106.2340698,324.9108582 				"/>
				
					<linearGradient id="SVGID_16_" gradientUnits="userSpaceOnUse" x1="66.500885" y1="333.0209351" x2="72.5257111" y2="366.4489746">
					<stop  offset="0" style="stop-color:#FFFFFF"/>
					<stop  offset="1" style="stop-color:#919395;stop-opacity:0"/>
				</linearGradient>
				<polygon fill="url(#SVGID_16_)" points="33.8889275,380.642334 90.6159821,333.6257019 106.2340698,324.9108582 
					89.0196228,329.7078247 				"/>
			</g>
			
				<linearGradient id="SVGID_17_" gradientUnits="userSpaceOnUse" x1="363.4541321" y1="-84.0899048" x2="314.4133911" y2="362.5784607">
				<stop  offset="0" style="stop-color:#FFFFFF"/>
				<stop  offset="1" style="stop-color:#FFFFFF;stop-opacity:0"/>
			</linearGradient>
			<path fill="url(#SVGID_17_)" d="M561.5059204,365.4011841
				c-21.8135376-61.8566589-73.6474915-141.9550476-196.5963135-186.2151794
				c-158.7392426-57.14991-253.1489868-1.2662811-293.2160645,33.986557
				C81.2264938,110.9620743,155.519043,24.3531418,262.9738464,4.2837768
				C399.0753174-21.125515,540.4450073,69.1628265,574.9332886,204.5475311
				C589.2446289,260.717865,583.1999512,316.9838562,561.5059204,365.4011841z"/>
			
				<linearGradient id="SVGID_18_" gradientUnits="userSpaceOnUse" x1="351.5836792" y1="-40.6235733" x2="314.8008423" y2="389.90271">
				<stop  offset="0" style="stop-color:#FFFFFF"/>
				<stop  offset="1" style="stop-color:#FAF8F3;stop-opacity:0"/>
			</linearGradient>
			<path fill="url(#SVGID_18_)" d="M561.5059204,365.4011841C587.5960693,283.3795776,572.687439,75.6136551,372.877594,28.8926296
				C123.5275269-29.4041252,71.6935577,213.1725616,71.6935577,213.1725616
				C81.2264938,110.9620743,155.519043,24.3531418,262.9738464,4.2837768
				C399.0753174-21.125515,540.4450073,69.1628265,574.9332886,204.5475311
				C589.2446289,260.717865,583.1999512,316.9838562,561.5059204,365.4011841z"/>
			<path fill="#FFFFFF" d="M346.1269531,2.6019344c-38.8105469-4.7021666-59.3812256,21.913393,3.0976868,37.6454926
				S406.407135,9.905302,346.1269531,2.6019344z"/>
		</g>
	</g>
	<g enable-background="new    ">
		<g>
			
				<linearGradient id="SVGID_19_" gradientUnits="userSpaceOnUse" x1="421.1867065" y1="318.9042358" x2="427.480072" y2="260.1661682">
				<stop  offset="0.1282051" style="stop-color:#45B250"/>
				<stop  offset="1" style="stop-color:#08140B"/>
			</linearGradient>
			<path fill="url(#SVGID_19_)" d="M392.1131592,266.6610718l55.5126038,14.2358398
				c3.5637207,1.0328064,6.1062622,4.7206726,6.0797119,8.046814l0.3292847,11.5357971
				c0.4538574,10.9295044-2.9733582,21.8945618-10.2821655,30.5891418l12.4376831-14.7957764
				c7.3088074-8.694519,10.7360229-19.659668,10.282074-30.5891113l-0.3291931-11.5357971
				c0.0264587-3.3261108-2.5160522-7.0140686-6.0797424-8.0467834l-55.5125732-14.2358551
				c-1.1792297-0.3370819-2.3835754-0.3981018-3.5250244-0.1959229c-1.6453552,0.2900696-3.1600647,1.1242065-4.2811584,2.4578552
				l-12.4375916,14.7957306c1.1210938-1.3336487,2.6357727-2.1677246,4.2811279-2.4578552
				C389.7295837,266.26297,390.9339294,266.3240356,392.1131592,266.6610718z"/>
			
				<linearGradient id="SVGID_20_" gradientUnits="userSpaceOnUse" x1="206.966568" y1="221.1587982" x2="381.5159607" y2="221.1587982">
				<stop  offset="0.1282051" style="stop-color:#45B250"/>
				<stop  offset="1" style="stop-color:#08140B"/>
			</linearGradient>
			<path fill="url(#SVGID_20_)" d="M217.4914398,156.6667175l15.2625275-1.8655853
				c3.158905-0.5569763,6.1231689,1.396286,7.4931183,3.6505585l35.5130463,47.5639801
				c1.3708191,2.2541351,1.3492126,5.5594482,0.3415222,8.2330322l-13.8255615,24.7917633
				c-1.1839905,1.8690338-0.6077576,4.2433777,0.7535095,6.4991913
				c36.1271362,43.309494,85.9296875,54.4160004,100.5567627,56.7986298
				c0.6906738,0.1027832,1.3538818,0.0890503,1.9775391-0.0209351c1.4247742-0.2512207,2.642395-1.0072937,3.5144348-2.0446167
				l12.4376221-14.7957764c-0.8719788,1.037384-2.0896606,1.793396-3.5144043,2.0445862
				c-0.6236572,0.1099854-1.2868958,0.1237488-1.9775085,0.0210266
				c-14.6271362-2.3826904-64.4296265-13.4891357-100.5568237-56.798645
				c-1.3612671-2.2558136-1.9374695-4.6301575-0.7535095-6.499176l13.825531-24.7918396
				c1.007782-2.6735077,1.0293274-5.9788361-0.3414612-8.2330322l-35.513092-47.5639191
				c-1.3698883-2.2543182-4.3341522-4.2075348-7.4930573-3.6505585l-15.2625885,1.8656006
				c-4.155014,0.7326202-8.0229645,2.6794281-10.5248108,5.6556854l-12.4376678,14.7957916
				C209.4684753,159.3462219,213.3364258,157.399353,217.4914398,156.6667175z"/>
		</g>
		
			<linearGradient id="SVGID_21_" gradientUnits="userSpaceOnUse" x1="124.6374817" y1="281.7120361" x2="485.7748718" y2="281.7120361">
			<stop  offset="0.1282051" style="stop-color:#45B250"/>
			<stop  offset="1" style="stop-color:#08140B"/>
		</linearGradient>
		<path fill="url(#SVGID_21_)" d="M485.7748718,366.7000427l-12.4359741,14.7973633
			c-26.1298828,31.0844421-62.8529358,53.3742371-106.3070984,61.0432739
			c-35.6637573,6.2786865-72.4420166,1.1696777-106.1967468-11.9283752l-8.0883789-2.7034912l-55.890152,25.7988586
			c-0.4082794,0.1876221-0.8276062,0.3200378-1.2469177,0.386261c-3.2661896,0.5737305-6.6096954-2.0966187-6.5214081-5.6276855
			l1.7875977-60.999115l-6.4883423-6.3227844c-20.3367157-20.7119141-36.2927399-45.6611023-46.5769043-72.7840881
			c-3.0455475-8.0000916-5.5945435-16.1767273-7.6138916-24.4967957
			c-8.739357-35.9837341-6.8855591-71.2943726,3.5310822-102.9084778
			c7.0841827-21.4953308,18.1408539-41.2803192,32.5299225-58.3949585l11.200119-13.3076935
			c-13.3629303,16.2649536-23.7574768,34.8802795-30.6540833,55.0294342
			c-10.9794312,32.0775146-13.0759583,68.0833435-4.1710358,104.7843628
			c1.9972534,8.2317505,4.5020447,16.3201294,7.5145416,24.2319031
			c10.2731781,27.2223511,26.2622833,52.2707825,46.676239,73.0599365l6.4883423,6.3117676l-1.7765503,60.999176
			c-0.0993347,3.5310669,3.2551422,6.201416,6.5103607,5.627594c0.4193115-0.0661926,0.8386383-0.1986084,1.2469177-0.3861694
			l55.8901672-25.7988586l8.0882874,2.7034912c33.7658386,13.0980225,70.5440979,18.2070618,106.1968384,11.9283752
			C422.9219055,420.0743103,459.644989,397.7844543,485.7748718,366.7000427z"/>
		
			<linearGradient id="SVGID_22_" gradientUnits="userSpaceOnUse" x1="173.7894897" y1="180.7895966" x2="80.6252365" y2="345.5699158">
			<stop  offset="0" style="stop-color:#E1E9A2"/>
			<stop  offset="1" style="stop-color:#C5E79C;stop-opacity:0"/>
		</linearGradient>
		<path fill="url(#SVGID_22_)" d="M150.1472015,293.2980347L137.8105469,308.36026
			c-3.0455475-8.0000916-5.5945435-16.1767273-7.6138916-24.4967957
			c-8.739357-35.9837341-6.8855591-71.2943726,3.5310822-102.9084778
			c4.2041779-5.3627777,8.5959167-10.9462738,13.0759583-16.6732178
			c-10.9794312,32.0775146-13.0759583,68.0833435-4.1710358,104.7843628
			C144.6299133,277.2978821,147.1347046,285.386261,150.1472015,293.2980347z"/>
		<g>
			
				<linearGradient id="SVGID_23_" gradientUnits="userSpaceOnUse" x1="400.5150146" y1="280.8005066" x2="396.9487915" y2="268.8431091">
				<stop  offset="0.1282051" style="stop-color:#45B250"/>
				<stop  offset="1" style="stop-color:#08140B"/>
			</linearGradient>
			<path fill="url(#SVGID_23_)" d="M384.3070374,268.9230347l12.4376221-14.7957458
				c1.1210938-1.3336792,2.6358337-2.1677551,4.2811584-2.4578705c1.1414185-0.2021637,2.3457642-0.1411285,3.5249939,0.1959076
				l-12.4376221,14.7957458c-1.1792297-0.3370361-2.383606-0.3980713-3.5249939-0.1958923
				C386.9428406,266.7552795,385.4281311,267.5893555,384.3070374,268.9230347z"/>
		</g>
		<g opacity="0.7">
			
				<linearGradient id="SVGID_24_" gradientUnits="userSpaceOnUse" x1="420.9838257" y1="314.4819641" x2="465.8764954" y2="291.4062805">
				<stop  offset="0" style="stop-color:#45B250;stop-opacity:0"/>
				<stop  offset="1" style="stop-color:#08140B"/>
			</linearGradient>
			<path fill="url(#SVGID_24_)" d="M456.1858215,316.2765808l-12.4359741,14.7974243
				c7.315918-8.6952515,10.7366333-19.6636353,10.2842407-30.598938l-0.3310242-11.5310974
				c0.0330505-3.3214111-2.5159302-7.0180359-6.0800781-8.0442505l12.4360046-14.7973328
				c3.5641479,1.0262146,6.1131287,4.7227783,6.0799866,8.0441895l0.3310852,11.5422058
				C466.9224548,296.6129761,463.50177,307.5813293,456.1858215,316.2765808z"/>
		</g>
		<g opacity="0.7">
			
				<linearGradient id="SVGID_25_" gradientUnits="userSpaceOnUse" x1="415.8378601" y1="304.4707642" x2="460.7305298" y2="281.3950806">
				<stop  offset="0" style="stop-color:#45B250;stop-opacity:0"/>
				<stop  offset="1" style="stop-color:#08140B"/>
			</linearGradient>
			<path fill="url(#SVGID_25_)" d="M466.4700623,285.6887817l-12.4359741,14.7862854l-0.3310242-11.5310974
				c0.0330505-3.3214111-2.5159302-7.0180359-6.0800781-8.0442505l12.4360046-14.7973328
				c3.5641479,1.0262146,6.1131287,4.7227783,6.0799866,8.0441895L466.4700623,285.6887817z"/>
		</g>
		<g opacity="0.7">
			
				<linearGradient id="SVGID_26_" gradientUnits="userSpaceOnUse" x1="413.4594727" y1="299.8437195" x2="458.3521423" y2="276.7680359">
				<stop  offset="0" style="stop-color:#45B250;stop-opacity:0"/>
				<stop  offset="1" style="stop-color:#08140B"/>
			</linearGradient>
			<path fill="url(#SVGID_26_)" d="M466.1431274,274.1479797l-12.4376221,14.7957764
				c0.0264893-3.3261414-2.5160217-7.0140381-6.0797119-8.0468445l12.4376221-14.7957458
				C463.6271362,267.1339722,466.1696167,270.8218689,466.1431274,274.1479797z"/>
		</g>
		<g opacity="0.6">
			
				<linearGradient id="SVGID_27_" gradientUnits="userSpaceOnUse" x1="234.5868683" y1="184.7762451" x2="228.9466248" y2="147.0993958">
				<stop  offset="0" style="stop-color:#45B250;stop-opacity:0"/>
				<stop  offset="1" style="stop-color:#08140B"/>
			</linearGradient>
			<path fill="url(#SVGID_27_)" d="M252.6861115,143.6516571l-12.4359283,14.7974091
				c-1.3682709-2.2510986-4.3365784-4.2041779-7.4925232-3.6524506l-15.2607727,1.8648529
				c-4.1600494,0.7392883-8.0332031,2.6813965-10.5270233,5.6607361l12.4359894-14.7974091
				c2.5048676-2.9793396,6.3669739-4.9213715,10.5269623-5.6496887l15.2608337-1.8648529
				C248.3495331,139.4474792,251.3178406,141.4006195,252.6861115,143.6516571z"/>
		</g>
		<g opacity="0.6">
			
				<linearGradient id="SVGID_28_" gradientUnits="userSpaceOnUse" x1="236.7481995" y1="184.4526978" x2="231.1079407" y2="146.7758484">
				<stop  offset="0" style="stop-color:#45B250;stop-opacity:0"/>
				<stop  offset="1" style="stop-color:#08140B"/>
			</linearGradient>
			<polygon fill="url(#SVGID_28_)" points="245.1916199,140.0054169 232.7539825,154.8011627 217.4914093,156.6667633 
				229.9290466,141.8710022 			"/>
		</g>
		<g>
			
				<linearGradient id="SVGID_29_" gradientUnits="userSpaceOnUse" x1="272.6490173" y1="198.6995087" x2="279.0574036" y2="246.4309387">
				<stop  offset="0.0205128" style="stop-color:#A3ECC2"/>
				<stop  offset="1" style="stop-color:#62DC6E;stop-opacity:0"/>
			</linearGradient>
			<polygon fill="url(#SVGID_29_)" points="274.7137146,224.2447357 262.276062,239.0404816 276.1016541,214.2486877 
				288.5392761,199.4529419 			"/>
		</g>
		<g>
			
				<linearGradient id="SVGID_30_" gradientUnits="userSpaceOnUse" x1="263.7350464" y1="199.8963013" x2="270.1434326" y2="247.6277161">
				<stop  offset="0.0205128" style="stop-color:#A3ECC2"/>
				<stop  offset="1" style="stop-color:#62DC6E;stop-opacity:0"/>
			</linearGradient>
			<path fill="url(#SVGID_30_)" d="M275.4672241,230.7439117l-12.4376526,14.7957611
				c-1.3612671-2.2558136-1.9374695-4.6301422-0.7535095-6.4991913l12.4376526-14.7957458
				C273.5297546,226.1137695,274.105957,228.4880981,275.4672241,230.7439117z"/>
		</g>
		<g>
			
				<linearGradient id="SVGID_31_" gradientUnits="userSpaceOnUse" x1="217.8265991" y1="448.9286194" x2="168.1963043" y2="360.8748779">
				<stop  offset="0" style="stop-color:#E1E9A2"/>
				<stop  offset="1" style="stop-color:#C5E79C;stop-opacity:0"/>
			</linearGradient>
			<polygon fill="url(#SVGID_31_)" points="201.5299683,433.6662598 189.0923309,448.4620056 190.8766174,387.4631348 
				203.3142548,372.6673889 			"/>
		</g>
		<g>
			
				<linearGradient id="SVGID_32_" gradientUnits="userSpaceOnUse" x1="219.7845612" y1="397.5776672" x2="230.212204" y2="445.1704712">
				<stop  offset="0" style="stop-color:#009A42;stop-opacity:0"/>
				<stop  offset="1" style="stop-color:#08140B"/>
			</linearGradient>
			<path fill="url(#SVGID_32_)" d="M265.1882935,413.105011l-12.4359741,14.7973938l-55.9011383,25.7988586
				c-0.4082794,0.1986084-0.8275909,0.3199768-1.2469177,0.3972168c-3.2552185,0.573822-6.6096954-2.1076355-6.5103607-5.6386414
				l12.4359283-14.7974243c-0.0992737,3.5310974,3.2552032,6.2124939,6.5104218,5.6386719
				c0.4193268-0.077179,0.8386383-0.1986084,1.2579651-0.3862L265.1882935,413.105011z"/>
		</g>
		<g>
			
				<linearGradient id="SVGID_33_" gradientUnits="userSpaceOnUse" x1="223.0156403" y1="396.8697205" x2="233.4432678" y2="444.4625244">
				<stop  offset="0" style="stop-color:#009A42;stop-opacity:0"/>
				<stop  offset="1" style="stop-color:#08140B"/>
			</linearGradient>
			<polygon fill="url(#SVGID_33_)" points="265.1863098,413.1076355 252.7486572,427.9033813 196.8556519,453.7061768 
				209.2932892,438.9104004 			"/>
		</g>
		<g>
			
				<linearGradient id="SVGID_34_" gradientUnits="userSpaceOnUse" x1="368.6874084" y1="60.6557503" x2="288.1878052" y2="453.9830017">
				<stop  offset="0.1282051" style="stop-color:#62DC6E"/>
				<stop  offset="1" style="stop-color:#46B768"/>
			</linearGradient>
			<path fill="url(#SVGID_34_)" d="M523.0166016,201.9868927C497.3832703,96.3639526,390.7671814,28.1923027,286.1594238,46.6311073
				c-90.4173431,15.9449768-150.7654572,92.1717987-149.0440521,180.260849
				c0.0882263,4.21521,0.3199768,8.463501,0.6841278,12.7228851c0.8386383,9.7214661,2.4385986,19.5532532,4.8441315,29.4402466
				c8.8607941,36.5465088,27.8402863,70.4778442,54.1798096,97.2918396l6.4993896,6.3118286l-1.7875977,60.999115
				c-0.0993347,3.5310669,3.2551422,6.2124634,6.5103607,5.6386414c0.4193115-0.07724,0.8386383-0.1986084,1.2579498-0.3861694
				l55.8901825-25.809906l8.0882874,2.7145386c33.7547913,13.0980225,70.5330505,18.2070618,106.1967468,11.9173279
				c47.6914978-8.4083557,87.272522-34.4389343,113.6230774-70.3675232
				c12.1049194-16.4746094,21.4181213-35.03479,27.454071-54.9411316
				C530.0235596,271.2730408,531.4801025,236.8341064,523.0166016,201.9868927z M453.1897888,319.4941101
				c-8.0221558,7.4373474-17.9532776,13.0428772-30.6099548,15.2718811
				c-6.4882813,1.1475525-13.6828308,1.4124451-21.7270813,0.573822
				c-74.5496216-7.547699-125.3527832-46.6321411-152.9060974-71.5923462
				c-21.9256897-19.873291-36.3148193-41.0707397-41.3796539-61.3964081
				c-0.0110474-0.0220947-0.0110474-0.0441132-0.0220947-0.0662079c-1.2137756-4.8662262-1.8869324-9.688385-1.9972534-14.4221954
				c-0.0220947-0.6400299-0.0220947-0.937912-0.0220947-0.937912c-0.5296326-12.4911499,4.5462341-23.5808868,9.4676819-31.5258026
				c1.5558472-2.5159149,3.0896759-4.711792,4.4359283-6.5434875c2.3834381-3.7297058,6.7531586-6.1573181,11.5090485-6.9849091
				l15.2607727-1.8648529c2.0966034-0.3751984,4.1049042,0.3641663,5.6166382,1.5558472
				c0.7724304,0.5959167,1.4124603,1.3241577,1.875885,2.085556l35.5092621,47.5700378
				c0.3862,0.6400299,0.6620483,1.3572998,0.8386536,2.1297302c0.4413452,1.9420319,0.2207031,4.1931305-0.496582,6.1020966
				l-13.826355,24.7947235c-1.1806335,1.8648529-0.6069031,4.2372437,0.7613831,6.4993134
				c0.6069641,0.7283325,1.2138367,1.4455261,1.8207397,2.1517639
				c35.9617004,41.5341644,84.3482971,52.3039093,98.7263184,54.6432343
				c0.6951904,0.0992737,1.3572998,0.0883179,1.9862976-0.0220642c1.6882324-0.2979736,3.100708-1.3131409,3.9724121-2.6703491
				l13.6387329-28.910614c1.0703735-2.4055328,3.1117554-3.8621063,5.4069519-4.2703857
				c1.147583-0.1986084,2.3503723-0.1434479,3.5310974,0.1986237l55.5039063,14.2346344
				c3.5641479,1.0261841,6.1131287,4.7227478,6.0800476,8.0441589l0.0110474,0.5296631l0.3199768,11.0125427
				C466.993988,298.0097961,462.558136,310.3796082,453.1897888,319.4941101z"/>
		</g>
		<g>
			
				<linearGradient id="SVGID_35_" gradientUnits="userSpaceOnUse" x1="452.9886169" y1="252.2986755" x2="441.736908" y2="258.4107056">
				<stop  offset="0.1282051" style="stop-color:#45B250"/>
				<stop  offset="1" style="stop-color:#08140B"/>
			</linearGradient>
			<polygon fill="url(#SVGID_35_)" points="434.7121887,259.8114929 425.4096069,275.199707 437.2169189,260.2383423 
				433.548584,254.9388428 			"/>
			
				<linearGradient id="SVGID_36_" gradientUnits="userSpaceOnUse" x1="438.4356995" y1="260.3094788" x2="423.4196167" y2="268.2894592">
				<stop  offset="0.1282051" style="stop-color:#9EC272"/>
				<stop  offset="1" style="stop-color:#46B768"/>
			</linearGradient>
			<polygon fill="url(#SVGID_36_)" points="438.8548889,260.6887207 433.548584,254.9388428 437.2169189,260.2383423 
				425.4096069,275.199707 			"/>
		</g>
		<g>
			
				<linearGradient id="SVGID_37_" gradientUnits="userSpaceOnUse" x1="295.2633972" y1="265.9537354" x2="287.9447021" y2="252.0926056">
				<stop  offset="0.1282051" style="stop-color:#45B250"/>
				<stop  offset="1" style="stop-color:#08140B"/>
			</linearGradient>
			<path fill="url(#SVGID_37_)" d="M279.196991,262.1872253l11.4875793-15.6470032c0,0,5.7438965-5.2139893,5.7438965-5.0407562
				s-2.9475708,7.7527313-2.9475708,7.7527313L279.196991,262.1872253z"/>
			
				<linearGradient id="SVGID_38_" gradientUnits="userSpaceOnUse" x1="280.9642334" y1="237.4475403" x2="284.9007263" y2="245.722168">
				<stop  offset="0.1282051" style="stop-color:#62DC6E"/>
				<stop  offset="1" style="stop-color:#46B768"/>
			</linearGradient>
			<polygon fill="url(#SVGID_38_)" points="289.5808411,245.5396729 296.4284668,241.4994659 290.6845703,246.5402222 
				279.196991,262.1872253 			"/>
			
				<linearGradient id="SVGID_39_" gradientUnits="userSpaceOnUse" x1="299.480957" y1="254.5490265" x2="282.6772156" y2="250.6524963">
				<stop  offset="0.1282051" style="stop-color:#9EC272"/>
				<stop  offset="1" style="stop-color:#46B768"/>
			</linearGradient>
			<polygon fill="url(#SVGID_39_)" points="293.480896,249.2521973 279.196991,262.1872253 295.3447876,250.5764008 
				296.4284668,241.4994659 			"/>
		</g>
		
			<linearGradient id="SVGID_40_" gradientUnits="userSpaceOnUse" x1="268.7575378" y1="205.5021057" x2="293.9830933" y2="219.7176056">
			<stop  offset="0.0717949" style="stop-color:#FFFFFF"/>
			<stop  offset="1" style="stop-color:#FFFFFF;stop-opacity:0"/>
		</linearGradient>
		<path fill="url(#SVGID_40_)" d="M286.1731567,210.7333984c-5.7600098,10.3834991-10.6009521,18.0346222-7.1140747,24.1587982
			c-0.6068726-0.7062225-2.9742432-3.4208679-3.5812073-4.1492004c-1.3682861-2.2620697-1.9420166-4.6344604-0.7613831-6.4993134
			l13.826355-24.7947235c0.7172852-1.9089661,0.9379272-4.1600647,0.496582-6.1020966
			C289.0394287,193.3468628,292.1759949,199.9304962,286.1731567,210.7333984z"/>
		
			<linearGradient id="SVGID_41_" gradientUnits="userSpaceOnUse" x1="350.5023804" y1="199.4789276" x2="273.7435303" y2="430.739563">
			<stop  offset="0" style="stop-color:#45B250;stop-opacity:0"/>
			<stop  offset="1" style="stop-color:#00AE4D"/>
		</linearGradient>
		<path fill="url(#SVGID_41_)" d="M520.5559082,302.423645c-6.0359497,19.9063416-15.3491516,38.4665222-27.454071,54.9411316
			c-26.3505554,35.9285889-65.9315796,61.9591675-113.6230774,70.3675232
			c-35.6636963,6.2897339-72.4419556,1.1806946-106.1967468-11.9173279l-8.0882874-2.7145386c0,0-0.0110474,0-0.0331421,0.0110474
			l-55.8570404,25.7988586c-0.4193115,0.187561-0.8386383,0.3089294-1.2579498,0.3861694
			c-3.2552185,0.573822-6.6096954-2.1075745-6.5103607-5.6386414l1.7875977-60.999115l-6.4993896-6.3118286
			c-26.3395233-26.8139954-45.3190155-60.7453308-54.1798096-97.2918396
			c-2.4055328-9.8869934-4.0054932-19.7187805-4.8441315-29.4402466c-0.364151-4.2593842-0.5959015-8.5076752-0.6841278-12.7228851
			c0.5737457,0.7724304,1.1586151,1.5338135,1.7544556,2.2620697
			c42.5493317,52.7121887,127.4383087-5.4951935,155.3227081,108.2492371
			C320.8079529,445.9945068,469.2450867,385.5471191,520.5559082,302.423645z"/>
		
			<linearGradient id="SVGID_42_" gradientUnits="userSpaceOnUse" x1="320.1649475" y1="414.655426" x2="323.0619202" y2="426.0364075">
			<stop  offset="0" style="stop-color:#009A42;stop-opacity:0"/>
			<stop  offset="1" style="stop-color:#08140B"/>
		</linearGradient>
		<polygon fill="url(#SVGID_42_)" points="328.8356323,429.3953247 316.0006409,444.1530762 335.7392273,429.9827881 
			332.8348999,421.0465698 		"/>
		
			<linearGradient id="SVGID_43_" gradientUnits="userSpaceOnUse" x1="343.8821106" y1="421.245636" x2="314.6495972" y2="438.2979431">
			<stop  offset="0.1282051" style="stop-color:#9EC272"/>
			<stop  offset="1" style="stop-color:#46B768"/>
		</linearGradient>
		<polygon fill="url(#SVGID_43_)" points="338.8860474,430.1678162 316.0006409,444.1530762 335.7392273,429.9827881 
			332.8348999,421.0465698 		"/>
		
			<linearGradient id="SVGID_44_" gradientUnits="userSpaceOnUse" x1="158.1880493" y1="363.3008118" x2="229.9131012" y2="290.9926453">
			<stop  offset="0.1282051" style="stop-color:#9EC272"/>
			<stop  offset="1" style="stop-color:#46B768"/>
		</linearGradient>
		<path fill="url(#SVGID_44_)" d="M265.1605835,413.1114807l-55.8570404,25.7988586
			c-0.4193115,0.187561-0.8386383,0.3089294-1.2579498,0.3861694c-3.2552185,0.573822-6.6096954-2.1075745-6.5103607-5.6386414
			l1.7875977-60.999115l-6.4993896-6.3118286c-26.3395233-26.8139954-45.3190155-60.7453308-54.1798096-97.2918396
			c-2.4055328-9.8869934-4.0054932-19.7187805-4.8441315-29.4402466c-0.364151-4.2593842-0.5959015-8.5076752-0.6841278-12.7228851
			c0.5737457,0.7724304,1.1586151,1.5338135,1.7544556,2.2620697
			c4.4800262,28.9657593,15.7554779,87.6169128,70.1614227,143.5133667c0,0-0.4434662,44.1247253-0.7965088,51.9813538
			c-0.3531189,7.8566284-0.7077484,10.940155,6.6191711,7.9718628
			C222.081604,429.6964722,263.85849,413.6191101,265.1605835,413.1114807z"/>
		<g>
			
				<linearGradient id="SVGID_45_" gradientUnits="userSpaceOnUse" x1="152.5564117" y1="279.758606" x2="149.7944031" y2="297.2913208">
				<stop  offset="0.1282051" style="stop-color:#45B250"/>
				<stop  offset="1" style="stop-color:#08140B"/>
			</linearGradient>
			<polygon fill="url(#SVGID_45_)" points="137.8105469,308.36026 150.1472015,293.2980347 160.8925018,291.8449707 
				152.0619812,298.197998 			"/>
			
				<linearGradient id="SVGID_46_" gradientUnits="userSpaceOnUse" x1="148.5700989" y1="296.2475891" x2="153.1617126" y2="318.8995667">
				<stop  offset="0.1282051" style="stop-color:#9EC272"/>
				<stop  offset="1" style="stop-color:#46B768"/>
			</linearGradient>
			<polygon fill="url(#SVGID_46_)" points="152.7299347,299.8209534 160.8925018,291.8449707 152.0619812,298.197998 
				137.8105469,308.36026 			"/>
			
				<linearGradient id="SVGID_47_" gradientUnits="userSpaceOnUse" x1="150.6899261" y1="305.7633972" x2="145.9564209" y2="285.742981">
				<stop  offset="0.1282051" style="stop-color:#45B250"/>
				<stop  offset="1" style="stop-color:#08140B"/>
			</linearGradient>
			<polygon fill="url(#SVGID_47_)" points="150.1472015,293.2980347 137.8105469,308.36026 149.4147339,291.3533325 
				160.8925018,291.8449707 			"/>
		</g>
		
			<linearGradient id="SVGID_48_" gradientUnits="userSpaceOnUse" x1="321.6757507" y1="354.9239197" x2="341.8132019" y2="213.2159119">
			<stop  offset="0.0717949" style="stop-color:#FFFFFF"/>
			<stop  offset="1" style="stop-color:#FFFFFF;stop-opacity:0"/>
		</linearGradient>
		<path fill="url(#SVGID_48_)" d="M458.8946533,320.5423889c-15.1448059,22.3888855-69.1461182,37.296875-162.3270264-12.9378662
			c-66.321701-35.7546692-84.8254089-80.9994812-90.0006256-105.2534637
			c5.0648346,20.3256683,19.4539642,41.5231171,41.3796539,61.3964081
			c27.5533142,24.9602051,78.3564758,64.0446472,152.9060974,71.5923462c8.0442505,0.838623,15.2388,0.5737305,21.7270813-0.573822
			c12.6566772-2.2290039,22.5877991-7.8345337,30.6099548-15.2718811c9.3683472-9.114502,13.8041992-21.484314,13.285614-33.809906
			l-0.3199768-11.0125427C466.9609375,282.1199951,469.6156311,304.6933594,458.8946533,320.5423889z"/>
		
			<linearGradient id="SVGID_49_" gradientUnits="userSpaceOnUse" x1="417.3431702" y1="221.6643829" x2="340.5842896" y2="452.9250183">
			<stop  offset="0" style="stop-color:#45B250;stop-opacity:0"/>
			<stop  offset="1" style="stop-color:#00AE4D"/>
		</linearGradient>
		<path fill="url(#SVGID_49_)" d="M373.681427,343.7585449c-45.0717163-14.1716919-40.3353882,16.8556213-4.2261047,27.1904907
			S423.2211304,359.3351135,373.681427,343.7585449z"/>
		
			<linearGradient id="SVGID_50_" gradientUnits="userSpaceOnUse" x1="417.984375" y1="15.1764975" x2="317.0230408" y2="278.3380127">
			<stop  offset="0" style="stop-color:#E1E9A2"/>
			<stop  offset="1" style="stop-color:#C5E79C;stop-opacity:0"/>
		</linearGradient>
		<path fill="url(#SVGID_50_)" d="M493.3335876,357.8392639c10.6704407-68.2709351,6.8655701-172.6287079-109.0265198-212.5658112
			c-49.9954224-17.228714-100.8842773-11.0830078-133.2596893-3.2373657
			c-1.511734-1.1917572-3.5200348-1.9310455-5.6166382-1.5559082l-15.2608337,1.8648376
			c-4.7559052,0.8275909-9.1255493,3.2552185-11.5090485,6.9849091c-1.3461914,1.8317108-2.8800201,4.0275726-4.4358673,6.5435028
			c-46.6431732,24.5519257-68.6130524,66.4281616-76.1938019,84.2158966
			c-0.4413452-5.1752167-0.6841431-10.3283539-0.7172089-15.4263916c0,0,0,0,0-0.0109711
			c-0.4414063-86.9304352,59.5867157-161.7669373,149.0771027-177.5463867
			C390.9988708,28.6667805,497.6149597,96.8384323,523.2483521,202.46138
			C537.1077271,259.5653076,524.3737793,315.5548096,493.3335876,357.8392639z"/>
		<g>
			
				<linearGradient id="SVGID_51_" gradientUnits="userSpaceOnUse" x1="367.6889343" y1="31.4375324" x2="327.964447" y2="266.4740295">
				<stop  offset="0" style="stop-color:#E1E9A2"/>
				<stop  offset="1" style="stop-color:#C5E79C;stop-opacity:0"/>
			</linearGradient>
			<path fill="url(#SVGID_51_)" d="M493.3335876,357.8392639c39.2610168-77.1868286,17.9421692-213.4859467-78.9414063-267.2795105
				c5.2414246-9.2359314-3.6965637-23.4816132-32.6402893-31.0513153
				c-34.2292175-8.9490242-51.5424805-2.4827805-48.8831787,8.5959778
				C165.8383331,59.442234,137.6339569,222.7981567,137.3139801,224.6519623
				c-0.4414063-86.9304352,59.5867157-161.7669373,149.0771027-177.5463867
				C390.9988708,28.6667805,497.6149597,96.8384323,523.2483521,202.46138
				C537.1077271,259.5653076,524.3737793,315.5548096,493.3335876,357.8392639z"/>
			
				<linearGradient id="SVGID_52_" gradientUnits="userSpaceOnUse" x1="380.5951233" y1="33.6188622" x2="340.870636" y2="268.655365">
				<stop  offset="0" style="stop-color:#E1E9A2"/>
				<stop  offset="1" style="stop-color:#C5E79C;stop-opacity:0"/>
			</linearGradient>
			<path fill="url(#SVGID_52_)" d="M372.1707153,65.3171692c-19.6888428-3.6348648-30.5185852,7.3131409-5.5614319,17.8059082
				S413.5058899,72.9482727,372.1707153,65.3171692z"/>
			
				<linearGradient id="SVGID_53_" gradientUnits="userSpaceOnUse" x1="331.3664246" y1="25.2985153" x2="291.6419373" y2="260.335022">
				<stop  offset="0" style="stop-color:#E1E9A2"/>
				<stop  offset="1" style="stop-color:#C5E79C;stop-opacity:0"/>
			</linearGradient>
			<path fill="url(#SVGID_53_)" d="M322.7410889,75.3198853c-16.3886414-1.7356873-15.1167908,9.1744766-1.444397,10.7145767
				C334.9690857,87.5745544,339.1297607,77.0555801,322.7410889,75.3198853z"/>
			
				<linearGradient id="SVGID_54_" gradientUnits="userSpaceOnUse" x1="400.2346497" y1="50.2656174" x2="405.0130615" y2="191.826416">
				<stop  offset="0" style="stop-color:#E1E9A2"/>
				<stop  offset="1" style="stop-color:#C5E79C;stop-opacity:0"/>
			</linearGradient>
			<path fill="url(#SVGID_54_)" d="M396.9718018,94.5697327c-7.5198059-1.336853-1.8557434,9.2209167,7.8161011,11.7646179
				C414.4597778,108.8780518,411.2801208,97.1134338,396.9718018,94.5697327z"/>
			
				<linearGradient id="SVGID_55_" gradientUnits="userSpaceOnUse" x1="430.980011" y1="42.1346169" x2="391.2555237" y2="277.1711121">
				<stop  offset="0" style="stop-color:#E1E9A2"/>
				<stop  offset="1" style="stop-color:#C5E79C;stop-opacity:0"/>
			</linearGradient>
			<path fill="url(#SVGID_55_)" d="M417.003479,113.3295288c-6.3592834-1.2718506-5.0874329,5.4053726,2.5437012,6.6772232
				C427.1782837,121.2786026,423.3627319,114.601387,417.003479,113.3295288z"/>
		</g>
	</g>
</g>
</svg>
