<?xml version="1.0" encoding="iso-8859-1"?>
<!-- Generator: Adobe Illustrator 19.2.0, SVG Export Plug-In . SVG Version: 6.00 Build 0)  -->
<svg version="1.1" id="Layer_1" xmlns="http://www.w3.org/2000/svg" xmlns:xlink="http://www.w3.org/1999/xlink" x="0px" y="0px"
	 viewBox="0 0 600 600" enable-background="new 0 0 600 600" xml:space="preserve">
<g>
	<g>
		<g>
			<g enable-background="new    ">
				<g>
					
						<linearGradient id="SVGID_1_" gradientUnits="userSpaceOnUse" x1="330.224823" y1="196.4309082" x2="160.4983826" y2="558.3475952">
						<stop  offset="0.0564103" style="stop-color:#D63538"/>
						<stop  offset="1" style="stop-color:#98292A"/>
					</linearGradient>
					<path fill="url(#SVGID_1_)" d="M571.4160156,383.1283875c-17.2861328,15.1728516-34.0914917,30.8772583-50.4158936,47.1130676
						c-6.6816406,6.6436768-14.7805786,10.6425781-25.5117188,14.008667
						c-4.3278503,1.3540344-9.0986633,2.6195068-14.3629456,3.897644
						c-28.0805664,6.2387085-97.7441711,21.4115601-155.9047546,38.5585327
						c-58.6287842,16.4509888-123.5848236,39.8114014-149.3622437,48.4797974
						c-4.0115662,1.2654419-7.7320251,2.3411255-11.2120361,3.2016602
						c-19.1337585,4.6568604-31.4593353,2.4042969-48.7454834-15.9574585
						c-11.9586182-12.3129883-24.4107819-32.1680603-38.8369827-62.6656189c0,0,0,0,0-0.0126648
						c-10.5286407-22.2593994-22.0949707-50.1881409-35.2683792-85.000946
						C24.97756,330.662384,13.4239006,295.7989502,6.7929006,268.0347595
						c-5.8843446-24.6638184-7.8837934-43.734314-6.2387104-58.6920624
						c1.0250199-10.9335938,3.3028331-19.1970215,7.1245484-25.7520905
						c12.7051954-21.7279358,25.9546051-43.0129852,39.7860794-63.8678284
						c-4.1633377,6.2893753-6.8081818,14.3250275-8.2128258,25.0055084
						c-2.4170723,16.197876-0.3922882,37.5082703,6.3778915,65.9431305
						c6.2007866,26.0558624,16.3877296,58.0973206,30.7886734,97.6683044
						c13.1607437,36.4579163,24.7524033,65.3989868,35.3823013,88.1772766
						c13.2873383,28.4475098,25.0813599,47.3029175,36.635025,59.3500366
						c15.9575043,17.1596375,28.0173035,20.8041687,45.4173889,18.3239136
						c4.9985809-0.7086487,10.4147186-1.9235229,16.4763184-3.4547424
						c27.0808105-7.4915161,95.3018188-27.713562,156.6134033-41.2286682
						c60.8685913-14.2744141,133.4934082-25.9166565,162.7508545-30.7000732
						c1.0376587-0.1898499,2.0626831-0.3796997,3.0496826-0.569458
						C550.1436157,394.9098206,562.0263062,391.3792114,571.4160156,383.1283875z"/>
				</g>
			</g>
		</g>
		
			<linearGradient id="SVGID_2_" gradientUnits="userSpaceOnUse" x1="20.7070045" y1="155.5834198" x2="41.8842888" y2="293.6279602">
			<stop  offset="0.0564103" style="stop-color:#E58187"/>
			<stop  offset="1" style="stop-color:#A22C2F;stop-opacity:0"/>
		</linearGradient>
		<path fill="url(#SVGID_2_)" d="M45.6298828,210.6714172c-14.9577503,18.6276093-28.7132988,39.6215515-38.8369827,57.3633423
			c-5.8843446-24.6638184-7.8837934-43.734314-6.2387104-58.6920624
			c1.0250199-10.9335938,3.3028331-19.1970215,7.1245484-25.7520905
			c12.7051954-21.7279358,25.9546051-43.0129852,39.7860794-63.8678284
			c-4.1633377,6.2893753-6.8081818,14.3250275-8.2128258,25.0055084
			C36.834919,160.9261627,38.8597031,182.236557,45.6298828,210.6714172z"/>
		
			<linearGradient id="SVGID_3_" gradientUnits="userSpaceOnUse" x1="239.1779175" y1="230.333786" x2="316.2631836" y2="403.5253601">
			<stop  offset="0" style="stop-color:#A22C2F;stop-opacity:0"/>
			<stop  offset="0.948718" style="stop-color:#782323"/>
		</linearGradient>
		<path opacity="0.7" fill="url(#SVGID_3_)" d="M571.4144287,383.1274109
			c-17.2891235,15.1746521-34.0946655,30.8744812-50.4163818,47.1133118
			c-6.6752319,6.6475525-14.7738953,10.6416626-25.5122986,14.0137939
			c-4.3257446,1.3543701-9.093689,2.6120605-14.3591919,3.8973389
			c-28.0828552,6.2329712-97.7509766,21.4076233-155.9066772,38.5586243
			c-58.6257019,16.446106-123.5810547,39.8023987-149.3558502,48.4815369
			c-4.0217438,1.2576904-7.7394104,2.3356323-11.2220612,3.1924438
			c-19.1273193,4.6574707-31.4549866,2.4048462-48.7441788-15.9485474
			c-11.9545822-12.3138428-24.4065933-32.173584-38.8349762-62.6749878c0,0,0,0,0-0.0138245
			c10.2131271-18.546814,22.3750458-40.6592712,34.7441406-63.2278137
			c13.2813568,28.4421692,25.070015,47.3068237,36.6237564,59.3442993
			c15.9624939,17.1647949,28.0275879,20.8133545,45.4272766,18.3257141
			c4.9891968-0.704834,10.406723-1.9210205,16.4738464-3.4550476c27.0738983-7.4906616,95.3046417-27.7097473,156.611496-41.2259521
			c60.8645325-14.2763672,133.4901123-25.9130249,162.7476501-30.6948853
			c1.036499-0.193512,2.0592651-0.3869324,3.0543213-0.5804443
			C550.1450806,394.9160767,562.0304565,391.3780823,571.4144287,383.1274109z"/>
		
			<linearGradient id="SVGID_4_" gradientUnits="userSpaceOnUse" x1="265.1911316" y1="299.1897583" x2="344.2786255" y2="459.3669434">
			<stop  offset="0" style="stop-color:#8D3335;stop-opacity:0"/>
			<stop  offset="0.948718" style="stop-color:#571729"/>
		</linearGradient>
		<path opacity="0.7" fill="url(#SVGID_4_)" d="M532.7453003,398.2329712
			c-14.7324219,18.1874695-27.6544189,34.1361389-37.259552,46.0215454
			c-4.3257446,1.3543701-9.093689,2.6120605-14.3591919,3.8973389
			c-28.0828552,6.2329712-97.7509766,21.4076233-155.9066772,38.5586243
			c-58.6257019,16.446106-123.5810547,39.8023987-149.3558502,48.4815369
			c-4.0217438,1.2576904-7.7394104,2.3356323-11.2220612,3.1924438
			c7.5319824-18.2289429,17.5516968-40.1893005,29.2160187-64.1951599c4.9891968-0.704834,10.406723-1.9210205,16.4738464-3.4550476
			c27.0738983-7.4906616,95.3046417-27.7097473,156.611496-41.2259521
			c60.8645325-14.2763672,133.4901123-25.9130249,162.7476501-30.6948853
			C530.727478,398.6199036,531.7502441,398.4264832,532.7453003,398.2329712z"/>
		
			<linearGradient id="SVGID_5_" gradientUnits="userSpaceOnUse" x1="303.7701416" y1="534.5653076" x2="259.2765198" y2="327.8853455">
			<stop  offset="0.0358974" style="stop-color:#F4CEA6"/>
			<stop  offset="1" style="stop-color:#DB4D51;stop-opacity:0"/>
		</linearGradient>
		<path fill="url(#SVGID_5_)" d="M520.9980469,430.2407227c-6.6752319,6.6475525-14.7738953,10.6416626-25.5122986,14.0137939
			c-4.3257446,1.3543701-9.093689,2.6120605-14.3591919,3.8973389
			c-28.0828552,6.2329712-97.7509766,21.4076233-155.9066772,38.5586243
			c-58.6257019,16.446106-123.5810547,39.8023987-149.3558502,48.4815369
			c-4.0217438,1.2576904-7.7394104,2.3356323-11.2220612,3.1924438
			c-19.1273193,4.6574707-31.4549866,2.4048462-48.7441788-15.9485474
			c-11.9545822-12.3138428-24.4065933-32.173584-38.8349762-62.6749878c0,0,0,0,0-0.0138245
			c-10.5311356-22.2507324-22.0987091-50.1814575-35.2694016-84.9947815
			C10.0481691,291.5265198-2.9428499,241.1516418,0.5536388,209.3373108
			c6.6061378,91.2277222,95.1665573,281.6297607,133.3796082,306.22995
			c38.2131348,24.6000977,59.2890625-3.6624146,175.0615692-34.4954834
			C424.7812195,450.238739,503.0178223,447.7234192,520.9980469,430.2407227z"/>
	</g>
	<g>
		<g>
			
				<linearGradient id="SVGID_6_" gradientUnits="userSpaceOnUse" x1="321.634552" y1="169.3677521" x2="306.5423889" y2="497.6221924">
				<stop  offset="0.0564103" style="stop-color:#DE2D35"/>
				<stop  offset="1" style="stop-color:#A22C2F"/>
			</linearGradient>
			<path fill="url(#SVGID_6_)" d="M557.4250488,93.0703278c19.9957275,24.754715,33.6077271,66.6199646,40.0523071,137.564682
				c6.2141724,70.7224121,0.491394,110.0466309-12.1625366,133.6918945
				c-12.2387695,23.820282-26.489624,29.1665344-55.6260986,34.490387
				c-29.2559814,4.7747803-101.8822327,16.4096069-162.7445984,30.6845703
				c-61.313446,13.5291748-129.5323486,33.7458801-156.6075592,41.2303772
				c-27.3022766,6.9314575-41.3670349,7.2044067-61.9123383-14.8730469
				c-20.797493-21.6795959-42.3903275-65.5151367-72.0098648-147.5157776
				c-30.1006393-82.7288666-41.813961-132.5601044-37.1673889-163.6202698
				c4.1486588-31.0818939,18.5545044-39.7994537,51.2327118-48.1758499
				c32.4287872-8.9677963,117.226799-23.9149857,192.9346619-30.2927856
				c75.3048401-7.2607422,164.3711853-7.9593887,200.2731323-5.3182449
				C519.4755249,62.9230804,537.9927979,68.2845383,557.4250488,93.0703278z"/>
			<g>
				
					<linearGradient id="SVGID_7_" gradientUnits="userSpaceOnUse" x1="324.8477478" y1="213.5044861" x2="264.0384827" y2="466.415741">
					<stop  offset="0" style="stop-color:#A22C2F;stop-opacity:0"/>
					<stop  offset="0.948718" style="stop-color:#9A2325"/>
				</linearGradient>
				<path fill="url(#SVGID_7_)" d="M304.3097839,331.9232788c5.6110229,4.6849976,10.7521362,10.2546387,14.8153076,16.8330994
					c20.4955139,33.1686707-45.3581848,55.7371521-106.6372986,25.9959412
					c-54.4243011-26.4243774-43.0502319-76.3156738,14.6632996-71.1192322
					C126.8849335,257.1416321,70.6777649,189.8644867,49.3393211,159.9988708
					c0.2901726,29.4371948,12.2032509,75.1685638,37.4667778,144.5878296
					c28.4835892,78.8447266,49.9465408,123.1388245,69.5989456,143.6203918l0.1105804,0.1244202
					c12.0236664,12.921936,19.7491608,15.5063477,28.3039246,15.5063477c6.7581482,0,14.8844757-1.8104553,22.6790619-3.7867432
					c4.9338531-1.3681946,11.208313-3.151001,18.5607147-5.2378845
					c32.9336853-9.3425293,88.0489807-24.9732666,138.4378052-36.0985718
					c58.584198-13.7373657,126.6628723-24.8212585,159.3894043-30.1558838l3.9248657-0.6357422
					c28.1796265-5.1549683,37.8538208-9.5636292,47.6661987-28.6494446l0.0828857-0.1658325
					c2.6950073-5.0444336,4.9891968-10.8765564,6.8687744-17.5379639
					C470.8304138,360.3516235,378.8425903,352.6260376,304.3097839,331.9232788z M154.9124298,308.3458557
					c-20.7304382-4.0217285-29.8932877-27.986084-9.6741943-26.0097656
					C177.4809875,285.4732361,175.642868,312.3675232,154.9124298,308.3458557z"/>
				
					<linearGradient id="SVGID_8_" gradientUnits="userSpaceOnUse" x1="253.8179779" y1="196.4263" x2="193.0087128" y2="449.3375549">
					<stop  offset="0" style="stop-color:#A22C2F;stop-opacity:0"/>
					<stop  offset="0.948718" style="stop-color:#9A2325"/>
				</linearGradient>
				<path fill="url(#SVGID_8_)" d="M228.6160431,267.2125549c-32.2983093-6.3391418-10.5955505,29.0267334,13.820282,26.2626648
					C266.8521729,290.7111816,254.4139099,272.2758789,228.6160431,267.2125549z"/>
			</g>
			
				<linearGradient id="SVGID_9_" gradientUnits="userSpaceOnUse" x1="314.29953" y1="108.6126175" x2="319.9907837" y2="297.3729553">
				<stop  offset="0.0564103" style="stop-color:#E26769"/>
				<stop  offset="1" style="stop-color:#DB4D51;stop-opacity:0"/>
			</linearGradient>
			<path fill="url(#SVGID_9_)" d="M583.1029053,204.5137939c-24.2113647-12.4216156-55.888916-18.7899323-88.0385132-18.4768677
				c-57.4636841-0.9925995-211.8613892,8.0850983-304.1120605,32.2841644
				c-62.907135,15.1616211-97.1244659,46.0153351-112.34758,64.0124054
				c-8.3339539-24.3787231-14.9695549-45.7854462-19.7022324-64.4066925
				c-7.7751732-30.4794617-10.488121-53.5281525-7.9752731-70.1918182
				c3.5055122-24.9943542,13.4232559-31.7318649,43.684166-39.6191483
				c33.5320816-9.5392151,123.1328354-24.9146652,191.081543-30.6877213
				c67.5855713-6.9450455,161.2938538-8.6932831,198.3005371-5.9680557
				c9.5509033,0.4934464,16.3716431,1.1593628,22.2578735,2.104805
				c16.2063293,2.6057892,27.7198181,7.4619522,41.2278748,24.6454773c0.0394897,0.0498276,0.0788574,0.0995941,0.1182861,0.1494293
				c7.8606567,9.688797,14.6554565,22.5345612,20.3821411,38.8401184
				C574.3448486,155.2503052,579.3787842,177.5536499,583.1029053,204.5137939z"/>
			
				<linearGradient id="SVGID_10_" gradientUnits="userSpaceOnUse" x1="307.7826233" y1="49.2514801" x2="310.0402527" y2="235.1279907">
				<stop  offset="0.0564103" style="stop-color:#EFBAB6"/>
				<stop  offset="1" style="stop-color:#DB4D51;stop-opacity:0"/>
			</linearGradient>
			<path fill="url(#SVGID_10_)" d="M567.9796753,137.1998901c-22.4908447-6.7284546-58.8735046-12.356308-121.8220215-13.7116394
				c-119.4328003-4.6302948-280.2492981,32.2069702-330.4997253,48.8480988
				c-29.3113937,8.416748-47.1359024,29.2164612-56.7554016,45.5904541
				c-7.7751732-30.4794617-10.488121-53.5281525-7.9752731-70.1918182
				c3.5055122-24.9943542,13.4232559-31.7318649,43.684166-39.6191483
				c33.5320816-9.5392151,123.1328354-24.9146652,191.081543-30.6877213
				c67.5855713-6.9450455,161.2938538-8.6932831,198.3005371-5.9680557
				c9.5509033,0.4934464,16.3716431,1.1593628,22.2578735,2.104805
				c16.2063293,2.6057892,27.7198181,7.4619522,41.2278748,24.6454773c0.0394897,0.0498276,0.0788574,0.0995941,0.1182861,0.1494293
				C555.4581909,108.0485687,562.2529907,120.8943329,567.9796753,137.1998901z"/>
			
				<linearGradient id="SVGID_11_" gradientUnits="userSpaceOnUse" x1="450.3901978" y1="14.2133064" x2="305.7086487" y2="263.8849792">
				<stop  offset="0.0358974" style="stop-color:#F6DCDD"/>
				<stop  offset="1" style="stop-color:#DB4D51;stop-opacity:0"/>
			</linearGradient>
			<path fill="url(#SVGID_11_)" d="M575.5604858,359.1077576l-0.0828857,0.1658325
				c-0.6495361,1.2575989-1.2991333,2.4600525-1.9486084,3.5932312
				c19.3760376-57.6443481,5.3760986-180.8107452-20.647522-229.5134277
				c-26.93573-50.3611298-90.2741394-56.2762527-236.3269348-47.9840775
				C170.5017548,93.6753235,64.9976425,119.726532,64.9976425,119.726532s0.055336-0.8015213,0.3593445-2.2112122v-0.0138321
				c6.2882156-3.9387512,15.1746445-6.9930649,27.8617477-10.240799l0.2072525-0.055336
				c30.1973801-8.3474197,113.3401871-23.3977356,190.9134521-29.9347076
				c43.4924011-4.1875839,98.3866272-6.6890564,146.9787292-6.6890564c21.158844,0,39.4707336,0.4975128,51.5634766,1.3820343
				l0.193512,0.0138321c33.76297,1.8657074,48.7580261,6.3711319,65.6463928,27.9169998l0.0967407,0.1243286
				c19.4865723,24.1025848,31.7866211,67.1666565,37.6464233,131.6106567
				C591.9099121,293.5304871,588.3442993,335.2400818,575.5604858,359.1077576z"/>
			
				<linearGradient id="SVGID_12_" gradientUnits="userSpaceOnUse" x1="354.9492493" y1="330.4138184" x2="330.7637634" y2="434.7569885">
				<stop  offset="0" style="stop-color:#A22C2F;stop-opacity:0"/>
				<stop  offset="0.948718" style="stop-color:#782323"/>
			</linearGradient>
			<path fill="url(#SVGID_12_)" d="M576.0684204,360.4721069c-0.0350342,0.0710449-0.0700073,0.1421814-0.1050415,0.2133179
				c-9.7241211,19.3221741-19.3526001,23.3835754-47.2015991,28.309967
				c-30.5736694,4.7746582-106.0480652,16.7290649-163.1289978,29.905304
				c-57.6412964,12.2847595-128.9266815,32.7305908-157.2052612,40.4547729
				c-6.9247131,1.7127686-12.0492096,2.756134-16.5252838,3.3137817c-13.1490784,1.6362-22.7906952-0.2579346-37.1325989-15.6956787
				c-0.0323792-0.0357361-0.0647736-0.0714111-0.0971375-0.1070862
				c-12.8514862-13.4581604-26.0717163-36.6192017-41.0269852-71.5511475
				c25.5743179,3.5791321,79.2947464-10.1059265,140.814209-23.6041565
				c61.2879944-13.9085999,130.3749695-27.6302795,181.3360291-33.6019287
				c80.7615662-9.7434387,128.867157-14.1355896,153.2312927-35.8876038
				C589.2369995,319.239563,584.6574097,344.3278198,576.0684204,360.4721069z"/>
			<g>
				
					<linearGradient id="SVGID_13_" gradientUnits="userSpaceOnUse" x1="516.0270996" y1="97.1195831" x2="497.3696899" y2="181.4233398">
					<stop  offset="0.0358974" style="stop-color:#F6DCDD"/>
					<stop  offset="1" style="stop-color:#DB4D51;stop-opacity:0"/>
				</linearGradient>
				<path fill="url(#SVGID_13_)" d="M518.3814087,110.1260834c-40.8421936-23.6607208-58.0452271,12.8989334-18.427063,38.6968079
					S557.7939453,132.9585876,518.3814087,110.1260834z"/>
				
					<linearGradient id="SVGID_14_" gradientUnits="userSpaceOnUse" x1="458.5040894" y1="84.3890839" x2="439.8466797" y2="168.6928406">
					<stop  offset="0.0358974" style="stop-color:#F6DCDD"/>
					<stop  offset="1" style="stop-color:#DB4D51;stop-opacity:0"/>
				</linearGradient>
				<path fill="url(#SVGID_14_)" d="M456.190094,92.6203842c-24.4125366-0.6103134-18.4270325,14.7416382,0,15.6629944
					C474.617157,109.2047272,474.617157,93.0810623,456.190094,92.6203842z"/>
			</g>
		</g>
		<g>
			<g>
				
					<linearGradient id="SVGID_15_" gradientUnits="userSpaceOnUse" x1="284.8538208" y1="276.2524414" x2="321.8261414" y2="217.0967712">
					<stop  offset="0" style="stop-color:#E7C2B6"/>
					<stop  offset="0.9282051" style="stop-color:#D7ABB9"/>
				</linearGradient>
				<path fill="url(#SVGID_15_)" d="M428.8005066,238.6619568c-8.4199524,6.3208923-16.7338257,12.7361603-24.9534302,19.2693787
					c-6.5449524,5.1769714-13.0073547,10.4483643-19.4226379,15.778717
					c-0.9906006,0.8254395-1.9812317,1.6509399-2.9717712,2.4882507
					c-32.0409241,26.8167114-62.4779968,55.3551941-91.2523499,85.5210876
					c-10.4248352-43.7393494-21.6987-87.973999-33.8098145-132.6567535
					c-0.5070801-1.8986206-1.0259552-3.7854309-1.5448456-5.6841125
					c-2.6062317-9.5874481-5.2595978-19.1867676-7.9483795-28.8096924
					c-3.2193909-11.5214691-6.4742126-23.0548248-9.8115082-34.6117096
					C303.7619934,185.4412537,367.6315002,211.7863007,428.8005066,238.6619568z"/>
			</g>
			
				<linearGradient id="SVGID_16_" gradientUnits="userSpaceOnUse" x1="316.9665527" y1="306.7884827" x2="334.2625732" y2="190.4333191">
				<stop  offset="0" style="stop-color:#D8A594;stop-opacity:0"/>
				<stop  offset="0.9282051" style="stop-color:#C88B9E"/>
			</linearGradient>
			<path fill="url(#SVGID_16_)" d="M428.8005066,238.6619568c-8.4199524,6.3208923-16.7338257,12.7361603-24.9534302,19.2693787
				c-6.5449524,5.1769714-13.0073547,10.4483643-19.4226379,15.778717
				c-0.9906006,0.8254395-1.9812317,1.6509399-2.9717712,2.4882507
				c-40.3665771-22.8543549-96.5827026-42.8784332-126.6070099-52.8197784
				c-2.6062317-9.5874481-5.2595978-19.1867676-7.9483795-28.8096924
				c-3.2193909-11.5214691-6.4742126-23.0548248-9.8115082-34.6117096
				C303.7619934,185.4412537,367.6315002,211.7863007,428.8005066,238.6619568z"/>
			
				<linearGradient id="SVGID_17_" gradientUnits="userSpaceOnUse" x1="210.4005432" y1="414.9895935" x2="395.9409485" y2="88.4384613">
				<stop  offset="0.0358974" style="stop-color:#F4CEA6"/>
				<stop  offset="1" style="stop-color:#DB4D51;stop-opacity:0"/>
			</linearGradient>
			<path fill="url(#SVGID_17_)" d="M428.8028564,238.6639252
				c-53.0836792,41.2950287-140.8148193,136.0883942-140.8148193,136.0883942l-50.9001465-214.7948761
				c3.3306427,11.5537415,6.5923004,23.0936584,9.8123627,34.6059723
				c3.2201538,11.5260773,6.384964,23.0245667,9.4945221,34.4954681
				c12.1065979,44.6809235,23.3840027,88.919693,33.8044739,132.6609344
				c29.6583557-31.0956421,61.0856934-60.4637756,94.2267151-88.0075989
				c6.4126282-5.3346863,12.8804932-10.6002197,19.4174805-15.7828064
				C412.0665283,251.3924255,420.3863525,244.9797974,428.8028564,238.6639252z"/>
			
				<linearGradient id="SVGID_18_" gradientUnits="userSpaceOnUse" x1="341.8315735" y1="327.0499268" x2="330.2652893" y2="160.784317">
				<stop  offset="0" style="stop-color:#D5A99A;stop-opacity:0"/>
				<stop  offset="0.9282051" style="stop-color:#C595A2"/>
			</linearGradient>
			<path display="none" fill="url(#SVGID_18_)" d="M428.8028564,238.6639252
				c-8.4165039,6.3158722-16.7363281,12.7285004-24.9594116,19.2654877
				c-6.5369873,5.1825867-13.0048523,10.4481201-19.4174805,15.7828064
				c-42.2071533-17.496521-98.08255-39.5537262-128.031189-44.6533356
				c-3.1095581-11.4709015-6.2743683-22.9693909-9.4945221-34.4954681
				c-3.2200623-11.5123138-6.48172-23.0522308-9.8123627-34.6059723
				C303.7569275,185.4419861,367.6343384,211.7835236,428.8028564,238.6639252z"/>
			
				<linearGradient id="SVGID_19_" gradientUnits="userSpaceOnUse" x1="328.0646973" y1="122.8816528" x2="336.3568726" y2="252.7923584">
				<stop  offset="0.0564103" style="stop-color:#B63538"/>
				<stop  offset="1" style="stop-color:#752A3F"/>
			</linearGradient>
			<path fill="url(#SVGID_19_)" d="M428.8022461,238.6618958c-8.419281,6.3127441-16.7402649,12.7363434-24.9618225,19.2692261
				c-50.444397-21.5549622-102.7384033-42.7370911-156.9396667-63.3703613
				c-3.2164154-11.5066833-6.488739-23.0430908-9.8171844-34.6089783
				C303.7546692,185.4374084,367.6277161,211.776886,428.8022461,238.6618958z"/>
			<g>
				
					<linearGradient id="SVGID_20_" gradientUnits="userSpaceOnUse" x1="345.0949097" y1="218.0437927" x2="333.9806519" y2="211.7822266">
					<stop  offset="0" style="stop-color:#8D3335;stop-opacity:0"/>
					<stop  offset="0.948718" style="stop-color:#571729"/>
				</linearGradient>
				<polygon opacity="0.7" fill="url(#SVGID_20_)" points="329.8122864,196.6522369 314.1364136,219.6643524 
					333.1547546,198.0224762 332.6493835,191.9702454 				"/>
				
					<linearGradient id="SVGID_21_" gradientUnits="userSpaceOnUse" x1="338.5419922" y1="203.5821838" x2="311.2513123" y2="207.6086731">
					<stop  offset="0.0564103" style="stop-color:#DE2D35"/>
					<stop  offset="1" style="stop-color:#A22C2F"/>
				</linearGradient>
				<polygon fill="url(#SVGID_21_)" points="314.1364136,219.6643524 335.0106812,198.7847748 332.6493835,191.9702454 
					333.1547546,198.0224762 				"/>
			</g>
			<g>
				
					<linearGradient id="SVGID_22_" gradientUnits="userSpaceOnUse" x1="386.0670471" y1="229.1492004" x2="379.545166" y2="225.4748993">
					<stop  offset="0" style="stop-color:#8D3335;stop-opacity:0"/>
					<stop  offset="0.948718" style="stop-color:#571729"/>
				</linearGradient>
				<polygon opacity="0.7" fill="url(#SVGID_22_)" points="377.0991516,216.5965576 367.9004822,230.1001587 
					379.0605164,217.4006195 378.7639771,213.8491516 				"/>
				
					<linearGradient id="SVGID_23_" gradientUnits="userSpaceOnUse" x1="382.2218018" y1="220.6630859" x2="366.207489" y2="223.0258484">
					<stop  offset="0.0564103" style="stop-color:#DE2D35"/>
					<stop  offset="1" style="stop-color:#A22C2F"/>
				</linearGradient>
				<polygon fill="url(#SVGID_23_)" points="367.9004822,230.1001587 380.1495972,217.8479462 378.7639771,213.8491516 
					379.0605164,217.4006195 				"/>
			</g>
		</g>
		<g>
			
				<linearGradient id="SVGID_24_" gradientUnits="userSpaceOnUse" x1="98.9470825" y1="195.9018555" x2="80.4387054" y2="231.6273346" gradientTransform="matrix(0.9946304 0.1034911 -0.1034911 0.9946304 29.7605 61.8552361)">
				<stop  offset="0" style="stop-color:#8D3335;stop-opacity:0"/>
				<stop  offset="0.948718" style="stop-color:#571729"/>
			</linearGradient>
			<polygon opacity="0.7" fill="url(#SVGID_24_)" points="76.3763123,307.6237183 49.3393211,340.5269775 78.5736694,313.4276123 
				89.1393433,310.9569702 			"/>
			
				<linearGradient id="SVGID_25_" gradientUnits="userSpaceOnUse" x1="67.6697617" y1="244.1024628" x2="65.392807" y2="273.8546753" gradientTransform="matrix(0.9946304 0.1034911 -0.1034911 0.9946304 29.7605 61.8552361)">
				<stop  offset="0.0564103" style="stop-color:#DE2D35"/>
				<stop  offset="1" style="stop-color:#A22C2F"/>
			</linearGradient>
			<polygon fill="url(#SVGID_25_)" points="79.7445755,316.3798218 49.3393211,340.5269775 78.5736694,313.4276123 
				89.1393433,310.9569702 			"/>
		</g>
		<g>
			
				<linearGradient id="SVGID_26_" gradientUnits="userSpaceOnUse" x1="86.0109406" y1="254.4567413" x2="67.3168564" y2="290.5406799">
				<stop  offset="0" style="stop-color:#8D3335;stop-opacity:0"/>
				<stop  offset="0.948718" style="stop-color:#571729"/>
			</linearGradient>
			<polygon opacity="0.7" fill="url(#SVGID_26_)" points="67.2034912,281.0318909 33.6042633,330.0982971 70.2998047,289.3254089 
				82.9986038,285.7867737 			"/>
			
				<linearGradient id="SVGID_27_" gradientUnits="userSpaceOnUse" x1="55.3482704" y1="291.557251" x2="60.3452415" y2="319.2823792">
				<stop  offset="0.0564103" style="stop-color:#DE2D35"/>
				<stop  offset="1" style="stop-color:#A22C2F"/>
			</linearGradient>
			<polygon fill="url(#SVGID_27_)" points="33.6042633,330.0982971 71.4774094,292.2155762 82.9986038,285.7867737 
				70.2998047,289.3254089 			"/>
		</g>
		<g>
			
				<linearGradient id="SVGID_28_" gradientUnits="userSpaceOnUse" x1="477.5297852" y1="408.8460388" x2="450.7441711" y2="425.453125" gradientTransform="matrix(0.999886 -0.0151026 0.0151026 0.999886 -7.4149036 -6.069447)">
				<stop  offset="0" style="stop-color:#8D3335;stop-opacity:0"/>
				<stop  offset="0.948718" style="stop-color:#571729"/>
			</linearGradient>
			<polygon opacity="0.7" fill="url(#SVGID_28_)" points="436.9055481,415.2153625 402.9570618,461.0860901 443.664917,413.7672729 
				437.3833618,401.8372192 			"/>
			
				<linearGradient id="SVGID_29_" gradientUnits="userSpaceOnUse" x1="447.9462585" y1="433.0730286" x2="409.5439453" y2="448.5174255" gradientTransform="matrix(0.999886 -0.0151026 0.0151026 0.999886 -7.4149036 -6.069447)">
				<stop  offset="0.0564103" style="stop-color:#DE2D35"/>
				<stop  offset="1" style="stop-color:#A22C2F"/>
			</linearGradient>
			<polygon fill="url(#SVGID_29_)" points="447.1611023,412.9721375 402.9570618,461.0860901 443.664917,413.7672729 
				437.3833618,401.8372192 			"/>
		</g>
	</g>
</g>
</svg>
